<svg width="285" height="400" viewBox="0 0 285 400" fill="none" xmlns="http://www.w3.org/2000/svg">
<g filter="url(#filter0_d)">
<path fill-rule="evenodd" clip-rule="evenodd" d="M71.3031 55.2734H163.793C172.663 55.2734 179.854 62.1064 179.854 70.5353V279.465C179.854 287.894 172.663 294.727 163.793 294.727H71.3031C62.4328 294.727 55.2419 287.894 55.2419 279.465V70.5353C55.2419 62.1064 62.4328 55.2734 71.3031 55.2734Z" fill="#213648"/>
</g>
<path opacity="0.595562" fill-rule="evenodd" clip-rule="evenodd" d="M164.151 55H70.8903C66.5363 55.2635 62.5207 57.2353 58.8436 60.9155C61.2084 58.8668 65.4262 56.1254 71.0026 56.1254C71.0026 56.1254 160.321 56.1254 164.038 56.1254C169.615 56.1254 173.833 58.8668 176.197 60.9155C172.52 57.2353 168.505 55.2635 164.151 55Z" fill="url(#paint0_linear)" fill-opacity="0.65"/>
<path opacity="0.75" fill-rule="evenodd" clip-rule="evenodd" d="M177.331 277.082V71.7914C177.331 66.2832 175.291 64.247 174.074 62.9396C172.857 61.6321 172.805 60.9652 174.554 61.9524C176.302 62.9396 179.799 65.8148 179.799 71.7914V277.082C179.799 283.059 176.302 285.934 174.554 286.921C172.805 287.908 172.857 287.241 174.074 285.934C175.291 284.626 177.331 282.59 177.331 277.082Z" fill="url(#paint1_linear)"/>
<path opacity="0.75" fill-rule="evenodd" clip-rule="evenodd" d="M57.7105 277.082V71.7914C57.7105 66.2832 59.7503 64.247 60.9671 62.9396C62.1839 61.6321 62.2357 60.9652 60.4873 61.9524C58.739 62.9396 55.2419 65.8148 55.2419 71.7914V277.082C55.2419 283.059 58.739 285.934 60.4873 286.921C62.2357 287.908 62.1839 287.241 60.9671 285.934C59.7503 284.626 57.7105 282.59 57.7105 277.082Z" fill="url(#paint2_linear)"/>
<path fill-rule="evenodd" clip-rule="evenodd" d="M54 104.948C54 104.285 54.5375 103.748 55.2006 103.748C55.8636 103.748 56.4011 104.285 56.4011 104.948V133.435C56.4011 134.098 55.8636 134.636 55.2006 134.636C54.5375 134.636 54 134.098 54 133.435V104.948Z" fill="#2E423C"/>
<path fill-rule="evenodd" clip-rule="evenodd" d="M178.557 130.141C178.557 129.478 179.095 128.941 179.758 128.941C180.421 128.941 180.958 129.478 180.958 130.141V150.276C180.958 150.939 180.421 151.477 179.758 151.477C179.095 151.477 178.557 150.939 178.557 150.276V130.141Z" fill="#2E423C"/>
<path fill-rule="evenodd" clip-rule="evenodd" d="M106.561 60.9731L70.5746 60.9731C65.2039 60.9731 61.2906 64.6035 61.2906 69.345V272.092C61.2906 278.274 67.3374 283.752 74.1747 283.752H160.909C167.495 283.752 173.793 278.232 173.793 272.092V69.8931C173.793 64.21 169.542 61.0069 164.509 60.9731L127.952 60.9731C127.814 60.9957 125.302 62.0204 124.241 64.6035C123.18 67.1867 121.044 69.2459 118.706 69.2459H115.99C114.879 69.2459 111.953 68.1756 110.471 64.6035C108.99 61.0314 106.7 60.9957 106.561 60.9731Z" fill="white"/>
<mask id="mask0" mask-type="alpha" maskUnits="userSpaceOnUse" x="61" y="60" width="113" height="224">
<path fill-rule="evenodd" clip-rule="evenodd" d="M106.561 60.9731L70.5746 60.9731C65.2039 60.9731 61.2906 64.6035 61.2906 69.345V272.092C61.2906 278.274 67.3374 283.752 74.1747 283.752H160.909C167.495 283.752 173.793 278.232 173.793 272.092V69.8931C173.793 64.21 169.542 61.0069 164.509 60.9731L127.952 60.9731C127.814 60.9957 125.302 62.0204 124.241 64.6035C123.18 67.1867 121.044 69.2459 118.706 69.2459H115.99C114.879 69.2459 111.953 68.1756 110.471 64.6035C108.99 61.0314 106.7 60.9957 106.561 60.9731Z" fill="white"/>
</mask>
<g mask="url(#mask0)">
<rect x="61" y="61" width="113" height="223" fill="url(#paint3_linear)"/>
<path fill-rule="evenodd" clip-rule="evenodd" d="M112.762 120.311V122.2H104.543V120.526C104.543 119.962 104.649 119.475 104.861 119.063C105.072 118.65 105.352 118.292 105.7 117.987C106.048 117.683 106.43 117.415 106.846 117.185C107.261 116.954 107.677 116.737 108.095 116.532C108.513 116.327 108.896 116.121 109.244 115.914C109.593 115.706 109.873 115.475 110.084 115.219C110.296 114.963 110.401 114.661 110.401 114.312C110.401 113.867 110.245 113.503 109.933 113.222C109.621 112.94 109.194 112.799 108.652 112.799C108.09 112.799 107.613 112.961 107.221 113.283C106.829 113.606 106.586 114.092 106.493 114.743H104.334C104.345 114.036 104.511 113.395 104.834 112.819C105.156 112.243 105.64 111.786 106.284 111.448C106.929 111.11 107.739 110.941 108.714 110.941C109.55 110.941 110.271 111.082 110.877 111.363C111.483 111.645 111.952 112.037 112.282 112.538C112.612 113.04 112.777 113.626 112.777 114.297C112.777 114.855 112.674 115.336 112.467 115.741C112.261 116.145 111.988 116.491 111.647 116.778C111.307 117.064 110.933 117.315 110.525 117.53C110.118 117.745 109.711 117.945 109.306 118.129C108.901 118.314 108.529 118.502 108.188 118.694C107.848 118.886 107.574 119.102 107.368 119.343C107.161 119.583 107.058 119.873 107.058 120.211V120.311H112.762ZM101.997 111.095V122.2H99.7068V113.882H97.7103V112.615C98.35 112.615 98.8672 112.555 99.2619 112.435C99.6565 112.314 99.9519 112.14 100.148 111.912C100.344 111.685 100.46 111.412 100.496 111.095H101.997ZM116.739 116.855V114.451H114.263V116.855H116.739ZM116.739 119.758V122.154H114.263V119.758H116.739ZM125.654 122.2V119.742H127.379V117.861H125.654V111.095H123.433L118.333 117.899V119.742H123.487L123.479 122.2H125.654ZM120.423 117.861H123.487V113.79L120.423 117.861ZM132.611 122.369C133.591 122.369 134.434 122.15 135.141 121.712C135.848 121.274 136.391 120.614 136.77 119.731C137.149 118.847 137.339 117.743 137.339 116.417C137.339 115.306 137.154 114.339 136.785 113.518C136.417 112.696 135.888 112.061 135.199 111.613C134.51 111.165 133.691 110.941 132.742 110.941C131.896 110.941 131.158 111.102 130.529 111.425C129.9 111.747 129.409 112.193 129.059 112.761C128.708 113.329 128.532 113.977 128.532 114.704C128.532 115.426 128.699 116.049 129.032 116.574C129.364 117.099 129.823 117.503 130.409 117.788C130.994 118.072 131.666 118.214 132.425 118.214C132.843 118.214 133.222 118.159 133.562 118.049C133.903 117.939 134.201 117.783 134.456 117.58C134.712 117.378 134.911 117.141 135.056 116.87C135.118 117.756 135.047 118.472 134.843 119.02C134.639 119.568 134.335 119.967 133.93 120.218C133.525 120.469 133.054 120.595 132.518 120.595C132.033 120.595 131.63 120.46 131.31 120.191C130.991 119.923 130.784 119.573 130.691 119.143H128.54C128.587 119.793 128.801 120.36 129.182 120.844C129.564 121.328 130.057 121.703 130.66 121.969C131.264 122.236 131.914 122.369 132.611 122.369ZM131.473 115.952C131.813 116.272 132.26 116.432 132.812 116.432C133.126 116.432 133.432 116.362 133.729 116.221C134.025 116.08 134.269 115.902 134.46 115.687C134.651 115.472 134.746 115.249 134.746 115.019C134.751 114.522 134.673 114.096 134.51 113.74C134.348 113.384 134.121 113.112 133.829 112.922C133.538 112.733 133.199 112.638 132.812 112.638C132.456 112.638 132.138 112.72 131.86 112.884C131.581 113.048 131.362 113.278 131.202 113.575C131.042 113.872 130.962 114.215 130.962 114.604C130.962 115.183 131.132 115.632 131.473 115.952Z" fill="white"/>
</g>
<g clip-path="url(#clip0)">
<g filter="url(#filter1_d)">
<rect x="64.2443" y="135" width="105.004" height="42.5532" rx="2" fill="#FBFCFE"/>
</g>
<path d="M72.115 152.31V151.885H74.85V152.31H73.7475V155.5H73.2825V152.31H72.115ZM75.3513 155.5V151.785H75.8013V153.295C75.8446 153.223 75.9029 153.157 75.9763 153.095C76.0496 153.032 76.1388 152.981 76.2438 152.942C76.3488 152.902 76.4704 152.882 76.6088 152.882C76.7771 152.882 76.9296 152.914 77.0663 152.977C77.2029 153.039 77.3113 153.127 77.3913 153.242C77.4713 153.357 77.5113 153.494 77.5113 153.652V155.5H77.0488V153.745C77.0488 153.59 76.9954 153.471 76.8888 153.387C76.7838 153.302 76.6463 153.26 76.4763 153.26C76.3613 153.26 76.2529 153.279 76.1513 153.317C76.0496 153.354 75.9671 153.411 75.9038 153.487C75.8421 153.562 75.8113 153.658 75.8113 153.775V155.5H75.3513ZM78.5621 154.315C78.5621 154.478 78.5888 154.627 78.6421 154.76C78.6971 154.892 78.7796 154.997 78.8896 155.075C79.0013 155.153 79.1404 155.192 79.3071 155.192C79.4721 155.192 79.6138 155.154 79.7321 155.077C79.8521 155.001 79.9288 154.89 79.9621 154.745H80.3996C80.3679 154.92 80.2979 155.067 80.1896 155.188C80.0813 155.307 79.9504 155.398 79.7971 155.46C79.6438 155.52 79.4838 155.55 79.3171 155.55C79.0754 155.55 78.8629 155.498 78.6796 155.392C78.4963 155.287 78.3529 155.137 78.2496 154.94C78.1463 154.743 78.0946 154.507 78.0946 154.232C78.0946 153.961 78.1413 153.722 78.2346 153.517C78.3279 153.312 78.4629 153.152 78.6396 153.037C78.8179 152.922 79.0321 152.865 79.2821 152.865C79.5254 152.865 79.7313 152.917 79.8996 153.022C80.0679 153.127 80.1954 153.276 80.2821 153.467C80.3704 153.657 80.4146 153.883 80.4146 154.145V154.315H78.5621ZM78.5646 154.002H79.9696C79.9696 153.854 79.9446 153.721 79.8946 153.602C79.8446 153.482 79.7679 153.388 79.6646 153.32C79.5629 153.25 79.4346 153.215 79.2796 153.215C79.1179 153.215 78.9838 153.254 78.8771 153.332C78.7721 153.409 78.6929 153.508 78.6396 153.63C78.5879 153.75 78.5629 153.874 78.5646 154.002ZM82.1677 156.305V152.915H82.6277L82.6327 153.365C82.6627 153.312 82.701 153.256 82.7477 153.197C82.796 153.139 82.8543 153.085 82.9227 153.035C82.9927 152.985 83.0735 152.944 83.1652 152.912C83.2585 152.881 83.3643 152.865 83.4827 152.865C83.6893 152.865 83.871 152.912 84.0277 153.007C84.186 153.101 84.3093 153.244 84.3977 153.437C84.486 153.631 84.5302 153.876 84.5302 154.172C84.5302 154.469 84.4868 154.72 84.4002 154.925C84.3152 155.128 84.1918 155.283 84.0302 155.39C83.8685 155.497 83.6735 155.55 83.4452 155.55C83.3302 155.55 83.2277 155.533 83.1377 155.5C83.0493 155.468 82.9718 155.427 82.9052 155.375C82.8402 155.322 82.7852 155.265 82.7402 155.205C82.6968 155.145 82.661 155.087 82.6327 155.032V156.305H82.1677ZM83.3577 155.19C83.571 155.19 83.7452 155.109 83.8802 154.947C84.0152 154.784 84.0827 154.531 84.0827 154.187C84.0827 153.892 84.021 153.658 83.8977 153.485C83.7743 153.312 83.5943 153.225 83.3577 153.225C83.1177 153.225 82.936 153.314 82.8127 153.492C82.6893 153.669 82.6277 153.901 82.6277 154.187C82.6277 154.372 82.6552 154.541 82.7102 154.692C82.7652 154.844 82.8468 154.965 82.9552 155.055C83.0635 155.145 83.1977 155.19 83.3577 155.19ZM85.8172 155.55C85.6506 155.55 85.5031 155.521 85.3747 155.462C85.2464 155.402 85.1456 155.317 85.0722 155.205C85.0006 155.093 84.9647 154.958 84.9647 154.8C84.9647 154.513 85.0647 154.3 85.2647 154.16C85.4647 154.02 85.7856 153.945 86.2272 153.935L86.6897 153.922V153.72C86.6897 153.562 86.6422 153.437 86.5472 153.345C86.4522 153.252 86.3047 153.205 86.1047 153.205C85.9564 153.207 85.8256 153.242 85.7122 153.31C85.6006 153.378 85.5281 153.49 85.4947 153.645H85.0872C85.0972 153.477 85.1447 153.335 85.2297 153.22C85.3147 153.103 85.4331 153.015 85.5847 152.955C85.7381 152.895 85.9189 152.865 86.1272 152.865C86.3522 152.865 86.5389 152.897 86.6872 152.96C86.8372 153.023 86.9489 153.117 87.0222 153.24C87.0972 153.363 87.1347 153.515 87.1347 153.695V155.5H86.7397L86.7072 155.015C86.6072 155.217 86.4797 155.357 86.3247 155.435C86.1714 155.512 86.0022 155.55 85.8172 155.55ZM85.9572 155.217C86.0439 155.217 86.1297 155.202 86.2147 155.17C86.3014 155.138 86.3806 155.096 86.4522 155.042C86.5239 154.987 86.5806 154.927 86.6222 154.86C86.6656 154.792 86.6881 154.722 86.6897 154.65V154.207L86.3047 154.215C86.1081 154.218 85.9431 154.238 85.8097 154.275C85.6781 154.312 85.5789 154.369 85.5122 154.447C85.4472 154.526 85.4147 154.628 85.4147 154.755C85.4147 154.9 85.4647 155.013 85.5647 155.095C85.6664 155.177 85.7972 155.217 85.9572 155.217ZM88.0965 156.325C87.9448 156.325 87.8407 156.314 87.784 156.293C87.7273 156.271 87.699 156.26 87.699 156.26V155.96L87.9615 155.965C88.0582 155.968 88.1382 155.962 88.2015 155.945C88.2648 155.928 88.3157 155.906 88.354 155.878C88.3923 155.849 88.4215 155.818 88.4415 155.783C88.4632 155.748 88.4807 155.714 88.494 155.683L88.584 155.437L87.574 152.915H88.0415L88.804 154.91L89.5615 152.915H90.014L88.924 155.695C88.8573 155.858 88.7823 155.986 88.699 156.078C88.6173 156.169 88.5257 156.233 88.424 156.27C88.324 156.307 88.2148 156.325 88.0965 156.325ZM90.5075 155.5V152.915H90.9525V153.29C91.0242 153.177 91.1225 153.077 91.2475 152.992C91.3725 152.907 91.535 152.865 91.735 152.865C91.8283 152.865 91.9233 152.881 92.02 152.912C92.1183 152.944 92.2083 152.992 92.29 153.055C92.3717 153.118 92.435 153.196 92.48 153.287C92.56 153.161 92.6683 153.059 92.805 152.982C92.9417 152.904 93.0958 152.865 93.2675 152.865C93.3575 152.865 93.4517 152.879 93.55 152.907C93.6483 152.934 93.7392 152.982 93.8225 153.052C93.9075 153.121 93.9767 153.217 94.03 153.34C94.0833 153.462 94.11 153.618 94.11 153.81V155.5H93.645V153.855C93.645 153.698 93.62 153.577 93.57 153.492C93.52 153.406 93.4542 153.345 93.3725 153.31C93.2925 153.275 93.2067 153.257 93.115 153.257C93.035 153.257 92.95 153.273 92.86 153.305C92.77 153.337 92.6933 153.39 92.63 153.465C92.5667 153.54 92.535 153.642 92.535 153.772V155.5H92.075V153.72C92.075 153.618 92.0475 153.533 91.9925 153.465C91.9392 153.397 91.8717 153.345 91.79 153.31C91.71 153.275 91.63 153.257 91.55 153.257C91.4617 153.257 91.3725 153.275 91.2825 153.31C91.1942 153.345 91.1192 153.401 91.0575 153.477C90.9975 153.552 90.9675 153.651 90.9675 153.772V155.5H90.5075ZM95.1637 154.315C95.1637 154.478 95.1903 154.627 95.2437 154.76C95.2987 154.892 95.3812 154.997 95.4912 155.075C95.6028 155.153 95.742 155.192 95.9087 155.192C96.0737 155.192 96.2153 155.154 96.3337 155.077C96.4537 155.001 96.5303 154.89 96.5637 154.745H97.0012C96.9695 154.92 96.8995 155.067 96.7912 155.188C96.6828 155.307 96.552 155.398 96.3987 155.46C96.2453 155.52 96.0853 155.55 95.9187 155.55C95.677 155.55 95.4645 155.498 95.2812 155.392C95.0978 155.287 94.9545 155.137 94.8512 154.94C94.7478 154.743 94.6962 154.507 94.6962 154.232C94.6962 153.961 94.7428 153.722 94.8362 153.517C94.9295 153.312 95.0645 153.152 95.2412 153.037C95.4195 152.922 95.6337 152.865 95.8837 152.865C96.127 152.865 96.3328 152.917 96.5012 153.022C96.6695 153.127 96.797 153.276 96.8837 153.467C96.972 153.657 97.0162 153.883 97.0162 154.145V154.315H95.1637ZM95.1662 154.002H96.5712C96.5712 153.854 96.5462 153.721 96.4962 153.602C96.4462 153.482 96.3695 153.388 96.2662 153.32C96.1645 153.25 96.0362 153.215 95.8812 153.215C95.7195 153.215 95.5853 153.254 95.4787 153.332C95.3737 153.409 95.2945 153.508 95.2412 153.63C95.1895 153.75 95.1645 153.874 95.1662 154.002ZM97.6511 155.5V152.915H98.0986V153.29C98.1402 153.218 98.1977 153.151 98.2711 153.087C98.3461 153.024 98.4361 152.973 98.5411 152.935C98.6477 152.897 98.7702 152.877 98.9086 152.877C99.0719 152.877 99.2219 152.91 99.3586 152.975C99.4969 153.04 99.6069 153.142 99.6886 153.28C99.7719 153.417 99.8136 153.593 99.8136 153.81V155.5H99.3511V153.855C99.3511 153.653 99.2977 153.504 99.1911 153.407C99.0861 153.309 98.9494 153.26 98.7811 153.26C98.6644 153.26 98.5552 153.279 98.4536 153.317C98.3519 153.354 98.2694 153.411 98.2061 153.487C98.1427 153.562 98.1111 153.657 98.1111 153.772V155.5H97.6511ZM101.728 153.252H101.146V154.86C101.146 154.952 101.155 155.019 101.173 155.062C101.193 155.104 101.226 155.131 101.271 155.142C101.317 155.154 101.381 155.16 101.461 155.16H101.743V155.47C101.711 155.482 101.663 155.492 101.598 155.5C101.535 155.508 101.456 155.513 101.361 155.513C101.182 155.513 101.044 155.488 100.946 155.44C100.847 155.392 100.778 155.32 100.738 155.225C100.7 155.13 100.681 155.013 100.681 154.875V153.252H100.261V152.915H100.693L100.806 152.162H101.146V152.912H101.728V153.252ZM103.545 155.5V151.785H103.995V153.295C104.038 153.223 104.096 153.157 104.17 153.095C104.243 153.032 104.332 152.981 104.437 152.942C104.542 152.902 104.664 152.882 104.802 152.882C104.97 152.882 105.123 152.914 105.26 152.977C105.396 153.039 105.505 153.127 105.585 153.242C105.665 153.357 105.705 153.494 105.705 153.652V155.5H105.242V153.745C105.242 153.59 105.189 153.471 105.082 153.387C104.977 153.302 104.84 153.26 104.67 153.26C104.555 153.26 104.446 153.279 104.345 153.317C104.243 153.354 104.16 153.411 104.097 153.487C104.035 153.562 104.005 153.658 104.005 153.775V155.5H103.545ZM107.131 155.55C106.964 155.55 106.817 155.521 106.688 155.462C106.56 155.402 106.459 155.317 106.386 155.205C106.314 155.093 106.278 154.958 106.278 154.8C106.278 154.513 106.378 154.3 106.578 154.16C106.778 154.02 107.099 153.945 107.541 153.935L108.003 153.922V153.72C108.003 153.562 107.956 153.437 107.861 153.345C107.766 153.252 107.618 153.205 107.418 153.205C107.27 153.207 107.139 153.242 107.026 153.31C106.914 153.378 106.842 153.49 106.808 153.645H106.401C106.411 153.477 106.458 153.335 106.543 153.22C106.628 153.103 106.747 153.015 106.898 152.955C107.052 152.895 107.232 152.865 107.441 152.865C107.666 152.865 107.852 152.897 108.001 152.96C108.151 153.023 108.262 153.117 108.336 153.24C108.411 153.363 108.448 153.515 108.448 153.695V155.5H108.053L108.021 155.015C107.921 155.217 107.793 155.357 107.638 155.435C107.485 155.512 107.316 155.55 107.131 155.55ZM107.271 155.217C107.357 155.217 107.443 155.202 107.528 155.17C107.615 155.138 107.694 155.096 107.766 155.042C107.837 154.987 107.894 154.927 107.936 154.86C107.979 154.792 108.002 154.722 108.003 154.65V154.207L107.618 154.215C107.422 154.218 107.257 154.238 107.123 154.275C106.992 154.312 106.892 154.369 106.826 154.447C106.761 154.526 106.728 154.628 106.728 154.755C106.728 154.9 106.778 155.013 106.878 155.095C106.98 155.177 107.111 155.217 107.271 155.217ZM110.112 155.55C109.932 155.55 109.764 155.523 109.609 155.467C109.456 155.411 109.328 155.323 109.227 155.205C109.125 155.085 109.061 154.932 109.034 154.747H109.454C109.477 154.849 109.519 154.934 109.579 155.002C109.641 155.069 109.717 155.12 109.809 155.155C109.901 155.188 110.001 155.205 110.109 155.205C110.282 155.205 110.422 155.172 110.529 155.107C110.636 155.042 110.689 154.942 110.689 154.807C110.689 154.712 110.661 154.637 110.604 154.58C110.549 154.522 110.463 154.479 110.347 154.452L109.812 154.32C109.603 154.27 109.437 154.192 109.312 154.085C109.187 153.978 109.124 153.829 109.124 153.637C109.122 153.486 109.158 153.352 109.232 153.237C109.305 153.122 109.415 153.032 109.562 152.965C109.708 152.898 109.891 152.865 110.109 152.865C110.389 152.865 110.615 152.928 110.787 153.055C110.96 153.18 111.05 153.364 111.057 153.607H110.649C110.632 153.484 110.577 153.387 110.482 153.315C110.388 153.242 110.262 153.205 110.104 153.205C109.939 153.205 109.805 153.238 109.702 153.305C109.598 153.37 109.547 153.472 109.547 153.61C109.547 153.702 109.583 153.774 109.657 153.827C109.73 153.879 109.838 153.922 109.982 153.957L110.499 154.088C110.619 154.119 110.717 154.161 110.794 154.212C110.872 154.264 110.934 154.322 110.979 154.385C111.026 154.448 111.058 154.515 111.077 154.585C111.097 154.653 111.107 154.719 111.107 154.782C111.107 154.941 111.067 155.077 110.987 155.192C110.908 155.306 110.795 155.394 110.647 155.457C110.5 155.519 110.322 155.55 110.112 155.55ZM114.163 155.55C114.011 155.55 113.883 155.53 113.778 155.49C113.675 155.45 113.59 155.399 113.523 155.337C113.456 155.274 113.405 155.21 113.368 155.145C113.331 155.078 113.305 155.02 113.288 154.97L113.238 155.5H112.885V151.785H113.35V153.325C113.372 153.282 113.405 153.234 113.448 153.182C113.493 153.131 113.55 153.081 113.62 153.032C113.69 152.984 113.773 152.944 113.868 152.912C113.965 152.881 114.075 152.865 114.198 152.865C114.521 152.865 114.778 152.977 114.968 153.202C115.16 153.427 115.255 153.759 115.255 154.197C115.255 154.469 115.215 154.707 115.133 154.91C115.051 155.112 114.93 155.269 114.768 155.382C114.606 155.494 114.405 155.55 114.163 155.55ZM114.08 155.195C114.29 155.195 114.461 155.114 114.593 154.952C114.725 154.789 114.79 154.53 114.79 154.175C114.79 153.873 114.729 153.64 114.605 153.475C114.484 153.308 114.305 153.225 114.07 153.225C113.899 153.225 113.76 153.262 113.655 153.337C113.552 153.411 113.475 153.518 113.425 153.66C113.377 153.802 113.352 153.973 113.35 154.175C113.35 154.537 113.406 154.797 113.518 154.957C113.631 155.116 113.819 155.195 114.08 155.195ZM116.189 154.315C116.189 154.478 116.216 154.627 116.269 154.76C116.324 154.892 116.407 154.997 116.517 155.075C116.628 155.153 116.767 155.192 116.934 155.192C117.099 155.192 117.241 155.154 117.359 155.077C117.479 155.001 117.556 154.89 117.589 154.745H118.027C117.995 154.92 117.925 155.067 117.817 155.188C117.708 155.307 117.577 155.398 117.424 155.46C117.271 155.52 117.111 155.55 116.944 155.55C116.702 155.55 116.49 155.498 116.307 155.392C116.123 155.287 115.98 155.137 115.877 154.94C115.773 154.743 115.722 154.507 115.722 154.232C115.722 153.961 115.768 153.722 115.862 153.517C115.955 153.312 116.09 153.152 116.267 153.037C116.445 152.922 116.659 152.865 116.909 152.865C117.152 152.865 117.358 152.917 117.527 153.022C117.695 153.127 117.822 153.276 117.909 153.467C117.997 153.657 118.042 153.883 118.042 154.145V154.315H116.189ZM116.192 154.002H117.597C117.597 153.854 117.572 153.721 117.522 153.602C117.472 153.482 117.395 153.388 117.292 153.32C117.19 153.25 117.062 153.215 116.907 153.215C116.745 153.215 116.611 153.254 116.504 153.332C116.399 153.409 116.32 153.508 116.267 153.63C116.215 153.75 116.19 153.874 116.192 154.002ZM119.006 154.315C119.006 154.478 119.033 154.627 119.086 154.76C119.141 154.892 119.224 154.997 119.334 155.075C119.446 155.153 119.585 155.192 119.751 155.192C119.916 155.192 120.058 155.154 120.176 155.077C120.296 155.001 120.373 154.89 120.406 154.745H120.844C120.812 154.92 120.742 155.067 120.634 155.188C120.526 155.307 120.395 155.398 120.241 155.46C120.088 155.52 119.928 155.55 119.761 155.55C119.52 155.55 119.307 155.498 119.124 155.392C118.941 155.287 118.797 155.137 118.694 154.94C118.591 154.743 118.539 154.507 118.539 154.232C118.539 153.961 118.586 153.722 118.679 153.517C118.772 153.312 118.907 153.152 119.084 153.037C119.262 152.922 119.476 152.865 119.726 152.865C119.97 152.865 120.176 152.917 120.344 153.022C120.512 153.127 120.64 153.276 120.726 153.467C120.815 153.657 120.859 153.883 120.859 154.145V154.315H119.006ZM119.009 154.002H120.414C120.414 153.854 120.389 153.721 120.339 153.602C120.289 153.482 120.212 153.388 120.109 153.32C120.007 153.25 119.879 153.215 119.724 153.215C119.562 153.215 119.428 153.254 119.321 153.332C119.216 153.409 119.137 153.508 119.084 153.63C119.032 153.75 119.007 153.874 119.009 154.002ZM121.494 155.5V152.915H121.941V153.29C121.983 153.218 122.04 153.151 122.114 153.087C122.189 153.024 122.279 152.973 122.384 152.935C122.49 152.897 122.613 152.877 122.751 152.877C122.915 152.877 123.065 152.91 123.201 152.975C123.34 153.04 123.45 153.142 123.531 153.28C123.615 153.417 123.656 153.593 123.656 153.81V155.5H123.194V153.855C123.194 153.653 123.14 153.504 123.034 153.407C122.929 153.309 122.792 153.26 122.624 153.26C122.507 153.26 122.398 153.279 122.296 153.317C122.195 153.354 122.112 153.411 122.049 153.487C121.985 153.562 121.954 153.657 121.954 153.772V155.5H121.494ZM125.532 156.305V152.915H125.992L125.997 153.365C126.027 153.312 126.065 153.256 126.112 153.197C126.16 153.139 126.219 153.085 126.287 153.035C126.357 152.985 126.438 152.944 126.529 152.912C126.623 152.881 126.729 152.865 126.847 152.865C127.054 152.865 127.235 152.912 127.392 153.007C127.55 153.101 127.674 153.244 127.762 153.437C127.85 153.631 127.894 153.876 127.894 154.172C127.894 154.469 127.851 154.72 127.764 154.925C127.679 155.128 127.556 155.283 127.394 155.39C127.233 155.497 127.038 155.55 126.809 155.55C126.694 155.55 126.592 155.533 126.502 155.5C126.414 155.468 126.336 155.427 126.269 155.375C126.204 155.322 126.149 155.265 126.104 155.205C126.061 155.145 126.025 155.087 125.997 155.032V156.305H125.532ZM126.722 155.19C126.935 155.19 127.109 155.109 127.244 154.947C127.379 154.784 127.447 154.531 127.447 154.187C127.447 153.892 127.385 153.658 127.262 153.485C127.139 153.312 126.959 153.225 126.722 153.225C126.482 153.225 126.3 153.314 126.177 153.492C126.054 153.669 125.992 153.901 125.992 154.187C125.992 154.372 126.019 154.541 126.074 154.692C126.129 154.844 126.211 154.965 126.319 155.055C126.428 155.145 126.562 155.19 126.722 155.19ZM128.501 155.5V152.915H128.941V153.412C128.984 153.289 129.045 153.187 129.123 153.107C129.201 153.026 129.291 152.965 129.391 152.925C129.492 152.885 129.597 152.865 129.706 152.865C129.744 152.865 129.781 152.867 129.818 152.873C129.855 152.877 129.883 152.886 129.903 152.897V153.345C129.878 153.333 129.846 153.326 129.806 153.322C129.767 153.317 129.735 153.315 129.708 153.315C129.605 153.308 129.508 153.315 129.418 153.335C129.328 153.353 129.249 153.386 129.181 153.432C129.112 153.479 129.058 153.541 129.018 153.617C128.98 153.692 128.961 153.784 128.961 153.892V155.5H128.501ZM131.408 155.55C131.17 155.55 130.961 155.499 130.783 155.397C130.605 155.294 130.466 155.143 130.368 154.945C130.27 154.747 130.221 154.504 130.221 154.217C130.221 153.947 130.266 153.711 130.358 153.507C130.45 153.304 130.584 153.147 130.761 153.035C130.939 152.922 131.155 152.865 131.408 152.865C131.646 152.865 131.853 152.917 132.028 153.022C132.205 153.126 132.341 153.278 132.438 153.48C132.535 153.682 132.583 153.927 132.583 154.217C132.583 154.481 132.538 154.712 132.448 154.912C132.36 155.112 132.228 155.269 132.053 155.382C131.88 155.494 131.665 155.55 131.408 155.55ZM131.408 155.185C131.563 155.185 131.694 155.146 131.801 155.067C131.907 154.989 131.988 154.877 132.043 154.73C132.098 154.583 132.126 154.409 132.126 154.207C132.126 154.022 132.101 153.857 132.053 153.71C132.005 153.562 131.927 153.444 131.821 153.357C131.716 153.271 131.578 153.227 131.408 153.227C131.251 153.227 131.119 153.267 131.011 153.345C130.902 153.422 130.82 153.533 130.763 153.68C130.708 153.827 130.681 154.002 130.681 154.207C130.681 154.389 130.706 154.554 130.756 154.702C130.806 154.851 130.884 154.968 130.991 155.055C131.097 155.142 131.236 155.185 131.408 155.185ZM134.218 152.865C134.403 152.865 134.57 152.901 134.718 152.972C134.866 153.042 134.987 153.142 135.081 153.272C135.176 153.402 135.235 153.556 135.258 153.732H134.848C134.833 153.642 134.798 153.56 134.743 153.485C134.69 153.41 134.619 153.35 134.531 153.305C134.442 153.26 134.339 153.237 134.221 153.237C133.999 153.237 133.819 153.317 133.681 153.477C133.542 153.637 133.473 153.882 133.473 154.212C133.473 154.511 133.536 154.75 133.663 154.93C133.791 155.108 133.98 155.197 134.228 155.197C134.346 155.197 134.449 155.175 134.536 155.13C134.624 155.083 134.695 155.022 134.748 154.947C134.801 154.871 134.836 154.789 134.851 154.702H135.253C135.231 154.876 135.173 155.026 135.078 155.152C134.983 155.279 134.861 155.377 134.713 155.447C134.566 155.516 134.401 155.55 134.218 155.55C133.986 155.55 133.781 155.499 133.601 155.397C133.422 155.296 133.282 155.146 133.181 154.947C133.079 154.749 133.028 154.506 133.028 154.217C133.028 153.947 133.074 153.712 133.166 153.51C133.259 153.307 133.394 153.148 133.571 153.035C133.749 152.922 133.965 152.865 134.218 152.865ZM136.213 154.315C136.213 154.478 136.24 154.627 136.293 154.76C136.348 154.892 136.431 154.997 136.541 155.075C136.653 155.153 136.792 155.192 136.958 155.192C137.123 155.192 137.265 155.154 137.383 155.077C137.503 155.001 137.58 154.89 137.613 154.745H138.051C138.019 154.92 137.949 155.067 137.841 155.188C137.733 155.307 137.602 155.398 137.448 155.46C137.295 155.52 137.135 155.55 136.968 155.55C136.727 155.55 136.514 155.498 136.331 155.392C136.148 155.287 136.004 155.137 135.901 154.94C135.798 154.743 135.746 154.507 135.746 154.232C135.746 153.961 135.793 153.722 135.886 153.517C135.979 153.312 136.114 153.152 136.291 153.037C136.469 152.922 136.683 152.865 136.933 152.865C137.177 152.865 137.383 152.917 137.551 153.022C137.719 153.127 137.847 153.276 137.933 153.467C138.022 153.657 138.066 153.883 138.066 154.145V154.315H136.213ZM136.216 154.002H137.621C137.621 153.854 137.596 153.721 137.546 153.602C137.496 153.482 137.419 153.388 137.316 153.32C137.214 153.25 137.086 153.215 136.931 153.215C136.769 153.215 136.635 153.254 136.528 153.332C136.423 153.409 136.344 153.508 136.291 153.63C136.239 153.75 136.214 153.874 136.216 154.002ZM139.599 155.55C139.419 155.55 139.251 155.523 139.096 155.467C138.943 155.411 138.815 155.323 138.714 155.205C138.612 155.085 138.548 154.932 138.521 154.747H138.941C138.965 154.849 139.006 154.934 139.066 155.002C139.128 155.069 139.205 155.12 139.296 155.155C139.388 155.188 139.488 155.205 139.596 155.205C139.77 155.205 139.91 155.172 140.016 155.107C140.123 155.042 140.176 154.942 140.176 154.807C140.176 154.712 140.148 154.637 140.091 154.58C140.036 154.522 139.95 154.479 139.834 154.452L139.299 154.32C139.09 154.27 138.924 154.192 138.799 154.085C138.674 153.978 138.611 153.829 138.611 153.637C138.61 153.486 138.645 153.352 138.719 153.237C138.792 153.122 138.902 153.032 139.049 152.965C139.195 152.898 139.378 152.865 139.596 152.865C139.876 152.865 140.102 152.928 140.274 153.055C140.447 153.18 140.537 153.364 140.544 153.607H140.136C140.12 153.484 140.064 153.387 139.969 153.315C139.875 153.242 139.75 153.205 139.591 153.205C139.426 153.205 139.292 153.238 139.189 153.305C139.085 153.37 139.034 153.472 139.034 153.61C139.034 153.702 139.07 153.774 139.144 153.827C139.217 153.879 139.325 153.922 139.469 153.957L139.986 154.088C140.106 154.119 140.205 154.161 140.281 154.212C140.36 154.264 140.421 154.322 140.466 154.385C140.513 154.448 140.545 154.515 140.564 154.585C140.584 154.653 140.594 154.719 140.594 154.782C140.594 154.941 140.554 155.077 140.474 155.192C140.395 155.306 140.282 155.394 140.134 155.457C139.987 155.519 139.809 155.55 139.599 155.55ZM142.113 155.55C141.933 155.55 141.766 155.523 141.611 155.467C141.458 155.411 141.33 155.323 141.228 155.205C141.127 155.085 141.063 154.932 141.036 154.747H141.456C141.479 154.849 141.521 154.934 141.581 155.002C141.643 155.069 141.719 155.12 141.811 155.155C141.903 155.188 142.003 155.205 142.111 155.205C142.284 155.205 142.424 155.172 142.531 155.107C142.638 155.042 142.691 154.942 142.691 154.807C142.691 154.712 142.663 154.637 142.606 154.58C142.551 154.522 142.465 154.479 142.348 154.452L141.813 154.32C141.605 154.27 141.438 154.192 141.313 154.085C141.188 153.978 141.126 153.829 141.126 153.637C141.124 153.486 141.16 153.352 141.233 153.237C141.307 153.122 141.417 153.032 141.563 152.965C141.71 152.898 141.893 152.865 142.111 152.865C142.391 152.865 142.617 152.928 142.788 153.055C142.962 153.18 143.052 153.364 143.058 153.607H142.651C142.634 153.484 142.578 153.387 142.483 153.315C142.39 153.242 142.264 153.205 142.106 153.205C141.941 153.205 141.807 153.238 141.703 153.305C141.6 153.37 141.548 153.472 141.548 153.61C141.548 153.702 141.585 153.774 141.658 153.827C141.732 153.879 141.84 153.922 141.983 153.957L142.501 154.088C142.621 154.119 142.719 154.161 142.796 154.212C142.874 154.264 142.936 154.322 142.981 154.385C143.028 154.448 143.06 154.515 143.078 154.585C143.098 154.653 143.108 154.719 143.108 154.782C143.108 154.941 143.068 155.077 142.988 155.192C142.91 155.306 142.797 155.394 142.648 155.457C142.502 155.519 142.323 155.55 142.113 155.55ZM144.085 154.315C144.085 154.478 144.111 154.627 144.165 154.76C144.22 154.892 144.302 154.997 144.412 155.075C144.524 155.153 144.663 155.192 144.83 155.192C144.995 155.192 145.136 155.154 145.255 155.077C145.375 155.001 145.451 154.89 145.485 154.745H145.922C145.89 154.92 145.82 155.067 145.712 155.188C145.604 155.307 145.473 155.398 145.32 155.46C145.166 155.52 145.006 155.55 144.84 155.55C144.598 155.55 144.385 155.498 144.202 155.392C144.019 155.287 143.875 155.137 143.772 154.94C143.669 154.743 143.617 154.507 143.617 154.232C143.617 153.961 143.664 153.722 143.757 153.517C143.85 153.312 143.985 153.152 144.162 153.037C144.34 152.922 144.555 152.865 144.805 152.865C145.048 152.865 145.254 152.917 145.422 153.022C145.59 153.127 145.718 153.276 145.805 153.467C145.893 153.657 145.937 153.883 145.937 154.145V154.315H144.085ZM144.087 154.002H145.492C145.492 153.854 145.467 153.721 145.417 153.602C145.367 153.482 145.29 153.388 145.187 153.32C145.085 153.25 144.957 153.215 144.802 153.215C144.64 153.215 144.506 153.254 144.4 153.332C144.295 153.409 144.215 153.508 144.162 153.63C144.11 153.75 144.085 153.874 144.087 154.002ZM147.504 155.55C147.169 155.55 146.904 155.435 146.707 155.205C146.51 154.975 146.412 154.639 146.412 154.197C146.412 153.929 146.451 153.695 146.529 153.495C146.609 153.295 146.728 153.14 146.884 153.03C147.041 152.92 147.236 152.865 147.469 152.865C147.593 152.865 147.702 152.881 147.797 152.912C147.894 152.944 147.977 152.984 148.047 153.032C148.117 153.081 148.174 153.131 148.217 153.182C148.262 153.234 148.295 153.282 148.317 153.325V151.785H148.782V155.5H148.429L148.379 154.97C148.363 155.02 148.336 155.078 148.299 155.145C148.263 155.21 148.211 155.274 148.144 155.337C148.078 155.399 147.992 155.45 147.887 155.49C147.784 155.53 147.656 155.55 147.504 155.55ZM147.587 155.195C147.849 155.195 148.035 155.116 148.147 154.957C148.26 154.797 148.317 154.537 148.317 154.175C148.315 153.973 148.289 153.802 148.239 153.66C148.191 153.518 148.114 153.411 148.009 153.337C147.906 153.262 147.769 153.225 147.597 153.225C147.384 153.225 147.21 153.301 147.077 153.452C146.944 153.604 146.877 153.845 146.877 154.175C146.877 154.498 146.937 154.749 147.057 154.927C147.179 155.106 147.355 155.195 147.587 155.195ZM149.438 155.5V154.91H149.988V155.5H149.438ZM72.115 159.31V158.885H74.85V159.31H73.7475V162.5H73.2825V159.31H72.115ZM75.3513 162.5V158.785H75.8013V160.295C75.8446 160.223 75.9029 160.157 75.9763 160.095C76.0496 160.032 76.1388 159.981 76.2438 159.942C76.3488 159.902 76.4704 159.882 76.6088 159.882C76.7771 159.882 76.9296 159.914 77.0663 159.977C77.2029 160.039 77.3113 160.127 77.3913 160.242C77.4713 160.357 77.5113 160.494 77.5113 160.652V162.5H77.0488V160.745C77.0488 160.59 76.9954 160.471 76.8888 160.387C76.7838 160.302 76.6463 160.26 76.4763 160.26C76.3613 160.26 76.2529 160.279 76.1513 160.317C76.0496 160.354 75.9671 160.411 75.9038 160.487C75.8421 160.562 75.8113 160.658 75.8113 160.775V162.5H75.3513ZM78.5621 161.315C78.5621 161.478 78.5888 161.627 78.6421 161.76C78.6971 161.892 78.7796 161.997 78.8896 162.075C79.0013 162.153 79.1404 162.192 79.3071 162.192C79.4721 162.192 79.6138 162.154 79.7321 162.077C79.8521 162.001 79.9288 161.89 79.9621 161.745H80.3996C80.3679 161.92 80.2979 162.067 80.1896 162.188C80.0813 162.307 79.9504 162.398 79.7971 162.46C79.6438 162.52 79.4838 162.55 79.3171 162.55C79.0754 162.55 78.8629 162.498 78.6796 162.392C78.4963 162.287 78.3529 162.137 78.2496 161.94C78.1463 161.743 78.0946 161.507 78.0946 161.232C78.0946 160.961 78.1413 160.722 78.2346 160.517C78.3279 160.312 78.4629 160.152 78.6396 160.037C78.8179 159.922 79.0321 159.865 79.2821 159.865C79.5254 159.865 79.7313 159.917 79.8996 160.022C80.0679 160.127 80.1954 160.276 80.2821 160.467C80.3704 160.657 80.4146 160.883 80.4146 161.145V161.315H78.5621ZM78.5646 161.002H79.9696C79.9696 160.854 79.9446 160.721 79.8946 160.602C79.8446 160.482 79.7679 160.388 79.6646 160.32C79.5629 160.25 79.4346 160.215 79.2796 160.215C79.1179 160.215 78.9838 160.254 78.8771 160.332C78.7721 160.409 78.6929 160.508 78.6396 160.63C78.5879 160.75 78.5629 160.874 78.5646 161.002ZM83.481 160.252H82.8985V161.86C82.8985 161.952 82.9076 162.019 82.926 162.062C82.946 162.104 82.9785 162.131 83.0235 162.142C83.0701 162.154 83.1335 162.16 83.2135 162.16H83.496V162.47C83.4643 162.482 83.416 162.492 83.351 162.5C83.2876 162.508 83.2085 162.513 83.1135 162.513C82.9351 162.513 82.7968 162.488 82.6985 162.44C82.6001 162.392 82.531 162.32 82.491 162.225C82.4526 162.13 82.4335 162.013 82.4335 161.875V160.252H82.0135V159.915H82.446L82.5585 159.162H82.8985V159.912H83.481V160.252ZM85.1043 162.55C84.866 162.55 84.6577 162.499 84.4793 162.397C84.301 162.294 84.1627 162.143 84.0643 161.945C83.966 161.747 83.9168 161.504 83.9168 161.217C83.9168 160.947 83.9627 160.711 84.0543 160.507C84.146 160.304 84.2802 160.147 84.4568 160.035C84.6352 159.922 84.851 159.865 85.1043 159.865C85.3427 159.865 85.5493 159.917 85.7243 160.022C85.901 160.126 86.0377 160.278 86.1343 160.48C86.231 160.682 86.2793 160.927 86.2793 161.217C86.2793 161.481 86.2343 161.712 86.1443 161.912C86.056 162.112 85.9243 162.269 85.7493 162.382C85.576 162.494 85.361 162.55 85.1043 162.55ZM85.1043 162.185C85.2593 162.185 85.3902 162.146 85.4968 162.067C85.6035 161.989 85.6843 161.877 85.7393 161.73C85.7943 161.583 85.8218 161.409 85.8218 161.207C85.8218 161.022 85.7977 160.857 85.7493 160.71C85.701 160.562 85.6235 160.444 85.5168 160.357C85.4118 160.271 85.2743 160.227 85.1043 160.227C84.9477 160.227 84.8152 160.267 84.7068 160.345C84.5985 160.422 84.516 160.533 84.4593 160.68C84.4043 160.827 84.3768 161.002 84.3768 161.207C84.3768 161.389 84.4018 161.554 84.4518 161.702C84.5018 161.851 84.5802 161.968 84.6868 162.055C84.7935 162.142 84.9327 162.185 85.1043 162.185ZM88.1148 160.252H87.5323V161.86C87.5323 161.952 87.5414 162.019 87.5598 162.062C87.5798 162.104 87.6123 162.131 87.6573 162.142C87.7039 162.154 87.7673 162.16 87.8473 162.16H88.1298V162.47C88.0981 162.482 88.0498 162.492 87.9848 162.5C87.9214 162.508 87.8423 162.513 87.7473 162.513C87.5689 162.513 87.4306 162.488 87.3323 162.44C87.2339 162.392 87.1648 162.32 87.1248 162.225C87.0864 162.13 87.0673 162.013 87.0673 161.875V160.252H86.6473V159.915H87.0798L87.1923 159.162H87.5323V159.912H88.1148V160.252ZM89.4745 162.55C89.3078 162.55 89.1603 162.521 89.032 162.462C88.9036 162.402 88.8028 162.317 88.7295 162.205C88.6578 162.093 88.622 161.958 88.622 161.8C88.622 161.513 88.722 161.3 88.922 161.16C89.122 161.02 89.4428 160.945 89.8845 160.935L90.347 160.922V160.72C90.347 160.562 90.2995 160.437 90.2045 160.345C90.1095 160.252 89.962 160.205 89.762 160.205C89.6136 160.207 89.4828 160.242 89.3695 160.31C89.2578 160.378 89.1853 160.49 89.152 160.645H88.7445C88.7545 160.477 88.802 160.335 88.887 160.22C88.972 160.103 89.0903 160.015 89.242 159.955C89.3953 159.895 89.5761 159.865 89.7845 159.865C90.0095 159.865 90.1961 159.897 90.3445 159.96C90.4945 160.023 90.6061 160.117 90.6795 160.24C90.7545 160.363 90.792 160.515 90.792 160.695V162.5H90.397L90.3645 162.015C90.2645 162.217 90.137 162.357 89.982 162.435C89.8286 162.512 89.6595 162.55 89.4745 162.55ZM89.6145 162.217C89.7011 162.217 89.787 162.202 89.872 162.17C89.9586 162.138 90.0378 162.096 90.1095 162.042C90.1811 161.987 90.2378 161.927 90.2795 161.86C90.3228 161.792 90.3453 161.722 90.347 161.65V161.207L89.962 161.215C89.7653 161.218 89.6003 161.238 89.467 161.275C89.3353 161.312 89.2361 161.369 89.1695 161.447C89.1045 161.526 89.072 161.628 89.072 161.755C89.072 161.9 89.122 162.013 89.222 162.095C89.3236 162.177 89.4545 162.217 89.6145 162.217ZM92.2342 162.533C92.0942 162.533 91.9809 162.513 91.8942 162.475C91.8092 162.437 91.7434 162.385 91.6967 162.32C91.6517 162.255 91.6209 162.181 91.6042 162.097C91.5892 162.012 91.5817 161.925 91.5817 161.835V158.785H92.0367V161.79C92.0367 161.92 92.0617 162.017 92.1117 162.082C92.1634 162.147 92.2351 162.183 92.3267 162.19L92.4667 162.192V162.492C92.4284 162.504 92.3884 162.513 92.3467 162.52C92.3051 162.528 92.2676 162.533 92.2342 162.533ZM94.9383 162.55C94.7717 162.55 94.6242 162.521 94.4958 162.462C94.3675 162.402 94.2667 162.317 94.1933 162.205C94.1217 162.093 94.0858 161.958 94.0858 161.8C94.0858 161.513 94.1858 161.3 94.3858 161.16C94.5858 161.02 94.9067 160.945 95.3483 160.935L95.8108 160.922V160.72C95.8108 160.562 95.7633 160.437 95.6683 160.345C95.5733 160.252 95.4258 160.205 95.2258 160.205C95.0775 160.207 94.9467 160.242 94.8333 160.31C94.7217 160.378 94.6492 160.49 94.6158 160.645H94.2083C94.2183 160.477 94.2658 160.335 94.3508 160.22C94.4358 160.103 94.5542 160.015 94.7058 159.955C94.8592 159.895 95.04 159.865 95.2483 159.865C95.4733 159.865 95.66 159.897 95.8083 159.96C95.9583 160.023 96.07 160.117 96.1433 160.24C96.2183 160.363 96.2558 160.515 96.2558 160.695V162.5H95.8608L95.8283 162.015C95.7283 162.217 95.6008 162.357 95.4458 162.435C95.2925 162.512 95.1233 162.55 94.9383 162.55ZM95.0783 162.217C95.165 162.217 95.2508 162.202 95.3358 162.17C95.4225 162.138 95.5017 162.096 95.5733 162.042C95.645 161.987 95.7017 161.927 95.7433 161.86C95.7867 161.792 95.8092 161.722 95.8108 161.65V161.207L95.4258 161.215C95.2292 161.218 95.0642 161.238 94.9308 161.275C94.7992 161.312 94.7 161.369 94.6333 161.447C94.5683 161.526 94.5358 161.628 94.5358 161.755C94.5358 161.9 94.5858 162.013 94.6858 162.095C94.7875 162.177 94.9183 162.217 95.0783 162.217ZM97.0456 162.5V159.915H97.4906V160.29C97.5623 160.177 97.6606 160.077 97.7856 159.992C97.9106 159.907 98.0731 159.865 98.2731 159.865C98.3664 159.865 98.4614 159.881 98.5581 159.912C98.6564 159.944 98.7464 159.992 98.8281 160.055C98.9098 160.118 98.9731 160.196 99.0181 160.287C99.0981 160.161 99.2064 160.059 99.3431 159.982C99.4798 159.904 99.6339 159.865 99.8056 159.865C99.8956 159.865 99.9898 159.879 100.088 159.907C100.186 159.934 100.277 159.982 100.361 160.052C100.446 160.121 100.515 160.217 100.568 160.34C100.621 160.462 100.648 160.618 100.648 160.81V162.5H100.183V160.855C100.183 160.698 100.158 160.577 100.108 160.492C100.058 160.406 99.9923 160.345 99.9106 160.31C99.8306 160.275 99.7448 160.257 99.6531 160.257C99.5731 160.257 99.4881 160.273 99.3981 160.305C99.3081 160.337 99.2314 160.39 99.1681 160.465C99.1048 160.54 99.0731 160.642 99.0731 160.772V162.5H98.6131V160.72C98.6131 160.618 98.5856 160.533 98.5306 160.465C98.4773 160.397 98.4098 160.345 98.3281 160.31C98.2481 160.275 98.1681 160.257 98.0881 160.257C97.9998 160.257 97.9106 160.275 97.8206 160.31C97.7323 160.345 97.6573 160.401 97.5956 160.477C97.5356 160.552 97.5056 160.651 97.5056 160.772V162.5H97.0456ZM102.399 162.55C102.161 162.55 101.953 162.499 101.774 162.397C101.596 162.294 101.458 162.143 101.359 161.945C101.261 161.747 101.212 161.504 101.212 161.217C101.212 160.947 101.258 160.711 101.349 160.507C101.441 160.304 101.575 160.147 101.752 160.035C101.93 159.922 102.146 159.865 102.399 159.865C102.638 159.865 102.844 159.917 103.019 160.022C103.196 160.126 103.333 160.278 103.429 160.48C103.526 160.682 103.574 160.927 103.574 161.217C103.574 161.481 103.529 161.712 103.439 161.912C103.351 162.112 103.219 162.269 103.044 162.382C102.871 162.494 102.656 162.55 102.399 162.55ZM102.399 162.185C102.554 162.185 102.685 162.146 102.792 162.067C102.898 161.989 102.979 161.877 103.034 161.73C103.089 161.583 103.117 161.409 103.117 161.207C103.117 161.022 103.093 160.857 103.044 160.71C102.996 160.562 102.918 160.444 102.812 160.357C102.707 160.271 102.569 160.227 102.399 160.227C102.243 160.227 102.11 160.267 102.002 160.345C101.893 160.422 101.811 160.533 101.754 160.68C101.699 160.827 101.672 161.002 101.672 161.207C101.672 161.389 101.697 161.554 101.747 161.702C101.797 161.851 101.875 161.968 101.982 162.055C102.088 162.142 102.228 162.185 102.399 162.185ZM105.085 162.55C104.95 162.548 104.823 162.529 104.703 162.492C104.585 162.454 104.48 162.398 104.388 162.325C104.296 162.252 104.224 162.161 104.17 162.052C104.119 161.942 104.093 161.815 104.093 161.67V159.915H104.555V161.622C104.555 161.791 104.607 161.927 104.71 162.032C104.815 162.137 104.973 162.19 105.183 162.19C105.373 162.19 105.525 162.141 105.64 162.042C105.757 161.942 105.815 161.794 105.815 161.597V159.915H106.275V162.5H105.908L105.86 162.005C105.829 162.135 105.775 162.24 105.698 162.32C105.623 162.4 105.532 162.459 105.425 162.497C105.32 162.534 105.207 162.552 105.085 162.55ZM107.031 162.5V159.915H107.478V160.29C107.52 160.218 107.578 160.151 107.651 160.087C107.726 160.024 107.816 159.973 107.921 159.935C108.028 159.897 108.15 159.877 108.288 159.877C108.452 159.877 108.602 159.91 108.738 159.975C108.877 160.04 108.987 160.142 109.068 160.28C109.152 160.417 109.193 160.593 109.193 160.81V162.5H108.731V160.855C108.731 160.653 108.678 160.504 108.571 160.407C108.466 160.309 108.329 160.26 108.161 160.26C108.044 160.26 107.935 160.279 107.833 160.317C107.732 160.354 107.649 160.411 107.586 160.487C107.523 160.562 107.491 160.657 107.491 160.772V162.5H107.031ZM111.108 160.252H110.525V161.86C110.525 161.952 110.535 162.019 110.553 162.062C110.573 162.104 110.605 162.131 110.65 162.142C110.697 162.154 110.76 162.16 110.84 162.16H111.123V162.47C111.091 162.482 111.043 162.492 110.978 162.5C110.915 162.508 110.835 162.513 110.74 162.513C110.562 162.513 110.424 162.488 110.325 162.44C110.227 162.392 110.158 162.32 110.118 162.225C110.08 162.13 110.06 162.013 110.06 161.875V160.252H109.64V159.915H110.073L110.185 159.162H110.525V159.912H111.108V160.252ZM113.794 162.55C113.459 162.55 113.193 162.435 112.996 162.205C112.799 161.975 112.701 161.639 112.701 161.197C112.701 160.929 112.74 160.695 112.819 160.495C112.899 160.295 113.017 160.14 113.174 160.03C113.33 159.92 113.525 159.865 113.759 159.865C113.882 159.865 113.991 159.881 114.086 159.912C114.183 159.944 114.266 159.984 114.336 160.032C114.406 160.081 114.463 160.131 114.506 160.182C114.551 160.234 114.584 160.282 114.606 160.325V158.785H115.071V162.5H114.719L114.669 161.97C114.652 162.02 114.625 162.078 114.589 162.145C114.552 162.21 114.5 162.274 114.434 162.337C114.367 162.399 114.281 162.45 114.176 162.49C114.073 162.53 113.945 162.55 113.794 162.55ZM113.876 162.195C114.138 162.195 114.324 162.116 114.436 161.957C114.549 161.797 114.606 161.537 114.606 161.175C114.604 160.973 114.579 160.802 114.529 160.66C114.48 160.518 114.404 160.411 114.299 160.337C114.195 160.262 114.058 160.225 113.886 160.225C113.673 160.225 113.499 160.301 113.366 160.452C113.233 160.604 113.166 160.845 113.166 161.175C113.166 161.498 113.226 161.749 113.346 161.927C113.468 162.106 113.644 162.195 113.876 162.195ZM116.165 161.315C116.165 161.478 116.191 161.627 116.245 161.76C116.3 161.892 116.382 161.997 116.492 162.075C116.604 162.153 116.743 162.192 116.91 162.192C117.075 162.192 117.216 162.154 117.335 162.077C117.455 162.001 117.531 161.89 117.565 161.745H118.002C117.97 161.92 117.9 162.067 117.792 162.188C117.684 162.307 117.553 162.398 117.4 162.46C117.246 162.52 117.086 162.55 116.92 162.55C116.678 162.55 116.465 162.498 116.282 162.392C116.099 162.287 115.955 162.137 115.852 161.94C115.749 161.743 115.697 161.507 115.697 161.232C115.697 160.961 115.744 160.722 115.837 160.517C115.93 160.312 116.065 160.152 116.242 160.037C116.42 159.922 116.635 159.865 116.885 159.865C117.128 159.865 117.334 159.917 117.502 160.022C117.67 160.127 117.798 160.276 117.885 160.467C117.973 160.657 118.017 160.883 118.017 161.145V161.315H116.165ZM116.167 161.002H117.572C117.572 160.854 117.547 160.721 117.497 160.602C117.447 160.482 117.37 160.388 117.267 160.32C117.165 160.25 117.037 160.215 116.882 160.215C116.72 160.215 116.586 160.254 116.48 160.332C116.375 160.409 116.295 160.508 116.242 160.63C116.19 160.75 116.165 160.874 116.167 161.002ZM119.585 162.55C119.25 162.55 118.984 162.435 118.787 162.205C118.59 161.975 118.492 161.639 118.492 161.197C118.492 160.929 118.531 160.695 118.61 160.495C118.69 160.295 118.808 160.14 118.965 160.03C119.121 159.92 119.316 159.865 119.55 159.865C119.673 159.865 119.782 159.881 119.877 159.912C119.974 159.944 120.057 159.984 120.127 160.032C120.197 160.081 120.254 160.131 120.297 160.182C120.342 160.234 120.375 160.282 120.397 160.325V158.785H120.862V162.5H120.51L120.46 161.97C120.443 162.02 120.416 162.078 120.38 162.145C120.343 162.21 120.291 162.274 120.225 162.337C120.158 162.399 120.072 162.45 119.967 162.49C119.864 162.53 119.736 162.55 119.585 162.55ZM119.667 162.195C119.929 162.195 120.115 162.116 120.227 161.957C120.34 161.797 120.397 161.537 120.397 161.175C120.395 160.973 120.37 160.802 120.32 160.66C120.271 160.518 120.195 160.411 120.09 160.337C119.986 160.262 119.849 160.225 119.677 160.225C119.464 160.225 119.29 160.301 119.157 160.452C119.024 160.604 118.957 160.845 118.957 161.175C118.957 161.498 119.017 161.749 119.137 161.927C119.259 162.106 119.435 162.195 119.667 162.195ZM122.576 162.55C122.441 162.548 122.313 162.529 122.193 162.492C122.075 162.454 121.97 162.398 121.878 162.325C121.786 162.252 121.714 162.161 121.661 162.052C121.609 161.942 121.583 161.815 121.583 161.67V159.915H122.046V161.622C122.046 161.791 122.097 161.927 122.201 162.032C122.306 162.137 122.463 162.19 122.673 162.19C122.863 162.19 123.016 162.141 123.131 162.042C123.247 161.942 123.306 161.794 123.306 161.597V159.915H123.766V162.5H123.398L123.351 162.005C123.319 162.135 123.265 162.24 123.188 162.32C123.113 162.4 123.022 162.459 122.916 162.497C122.811 162.534 122.697 162.552 122.576 162.55ZM125.517 159.865C125.702 159.865 125.869 159.901 126.017 159.972C126.165 160.042 126.286 160.142 126.379 160.272C126.474 160.402 126.534 160.556 126.557 160.732H126.147C126.132 160.642 126.097 160.56 126.042 160.485C125.989 160.41 125.918 160.35 125.829 160.305C125.741 160.26 125.638 160.237 125.519 160.237C125.298 160.237 125.118 160.317 124.979 160.477C124.841 160.637 124.772 160.882 124.772 161.212C124.772 161.511 124.835 161.75 124.962 161.93C125.09 162.108 125.279 162.197 125.527 162.197C125.645 162.197 125.748 162.175 125.834 162.13C125.923 162.083 125.994 162.022 126.047 161.947C126.1 161.871 126.134 161.789 126.149 161.702H126.552C126.53 161.876 126.472 162.026 126.377 162.152C126.282 162.279 126.16 162.377 126.012 162.447C125.865 162.516 125.7 162.55 125.517 162.55C125.285 162.55 125.079 162.499 124.899 162.397C124.721 162.296 124.581 162.146 124.479 161.947C124.378 161.749 124.327 161.506 124.327 161.217C124.327 160.947 124.373 160.712 124.464 160.51C124.558 160.307 124.693 160.148 124.869 160.035C125.048 159.922 125.264 159.865 125.517 159.865ZM128.413 160.252H127.83V161.86C127.83 161.952 127.839 162.019 127.858 162.062C127.878 162.104 127.91 162.131 127.955 162.142C128.002 162.154 128.065 162.16 128.145 162.16H128.428V162.47C128.396 162.482 128.348 162.492 128.283 162.5C128.219 162.508 128.14 162.513 128.045 162.513C127.867 162.513 127.728 162.488 127.63 162.44C127.532 162.392 127.463 162.32 127.423 162.225C127.384 162.13 127.365 162.013 127.365 161.875V160.252H126.945V159.915H127.378L127.49 159.162H127.83V159.912H128.413V160.252ZM129.338 161.315C129.338 161.478 129.365 161.627 129.418 161.76C129.473 161.892 129.556 161.997 129.666 162.075C129.778 162.153 129.917 162.192 130.083 162.192C130.248 162.192 130.39 162.154 130.508 162.077C130.628 162.001 130.705 161.89 130.738 161.745H131.176C131.144 161.92 131.074 162.067 130.966 162.188C130.858 162.307 130.727 162.398 130.573 162.46C130.42 162.52 130.26 162.55 130.093 162.55C129.852 162.55 129.639 162.498 129.456 162.392C129.273 162.287 129.129 162.137 129.026 161.94C128.923 161.743 128.871 161.507 128.871 161.232C128.871 160.961 128.918 160.722 129.011 160.517C129.104 160.312 129.239 160.152 129.416 160.037C129.594 159.922 129.808 159.865 130.058 159.865C130.302 159.865 130.508 159.917 130.676 160.022C130.844 160.127 130.972 160.276 131.058 160.467C131.147 160.657 131.191 160.883 131.191 161.145V161.315H129.338ZM129.341 161.002H130.746C130.746 160.854 130.721 160.721 130.671 160.602C130.621 160.482 130.544 160.388 130.441 160.32C130.339 160.25 130.211 160.215 130.056 160.215C129.894 160.215 129.76 160.254 129.653 160.332C129.548 160.409 129.469 160.508 129.416 160.63C129.364 160.75 129.339 160.874 129.341 161.002ZM132.758 162.55C132.423 162.55 132.158 162.435 131.961 162.205C131.764 161.975 131.666 161.639 131.666 161.197C131.666 160.929 131.705 160.695 131.783 160.495C131.863 160.295 131.982 160.14 132.138 160.03C132.295 159.92 132.49 159.865 132.723 159.865C132.847 159.865 132.956 159.881 133.051 159.912C133.148 159.944 133.231 159.984 133.301 160.032C133.371 160.081 133.428 160.131 133.471 160.182C133.516 160.234 133.549 160.282 133.571 160.325V158.785H134.036V162.5H133.683L133.633 161.97C133.617 162.02 133.59 162.078 133.553 162.145C133.517 162.21 133.465 162.274 133.398 162.337C133.332 162.399 133.246 162.45 133.141 162.49C133.038 162.53 132.91 162.55 132.758 162.55ZM132.841 162.195C133.103 162.195 133.289 162.116 133.401 161.957C133.514 161.797 133.571 161.537 133.571 161.175C133.569 160.973 133.543 160.802 133.493 160.66C133.445 160.518 133.368 160.411 133.263 160.337C133.16 160.262 133.023 160.225 132.851 160.225C132.638 160.225 132.464 160.301 132.331 160.452C132.198 160.604 132.131 160.845 132.131 161.175C132.131 161.498 132.191 161.749 132.311 161.927C132.433 162.106 132.609 162.195 132.841 162.195ZM137.412 159.915V160.252H136.784V162.5H136.319V160.252H135.774V159.915H136.319V159.515C136.319 159.31 136.372 159.154 136.477 159.047C136.582 158.939 136.739 158.885 136.947 158.885H137.434L137.437 159.212H137.049C136.944 159.212 136.873 159.241 136.834 159.297C136.796 159.354 136.777 159.44 136.777 159.555V159.915H137.412ZM137.983 162.5V159.915H138.423V160.412C138.466 160.289 138.527 160.187 138.606 160.107C138.684 160.026 138.773 159.965 138.873 159.925C138.975 159.885 139.08 159.865 139.188 159.865C139.226 159.865 139.264 159.867 139.301 159.873C139.337 159.877 139.366 159.886 139.386 159.897V160.345C139.361 160.333 139.328 160.326 139.288 160.322C139.25 160.317 139.217 160.315 139.191 160.315C139.087 160.308 138.991 160.315 138.901 160.335C138.811 160.353 138.731 160.386 138.663 160.432C138.595 160.479 138.541 160.541 138.501 160.617C138.462 160.692 138.443 160.784 138.443 160.892V162.5H137.983ZM140.89 162.55C140.652 162.55 140.444 162.499 140.265 162.397C140.087 162.294 139.949 162.143 139.85 161.945C139.752 161.747 139.703 161.504 139.703 161.217C139.703 160.947 139.749 160.711 139.84 160.507C139.932 160.304 140.066 160.147 140.243 160.035C140.421 159.922 140.637 159.865 140.89 159.865C141.129 159.865 141.335 159.917 141.51 160.022C141.687 160.126 141.824 160.278 141.92 160.48C142.017 160.682 142.065 160.927 142.065 161.217C142.065 161.481 142.02 161.712 141.93 161.912C141.842 162.112 141.71 162.269 141.535 162.382C141.362 162.494 141.147 162.55 140.89 162.55ZM140.89 162.185C141.045 162.185 141.176 162.146 141.283 162.067C141.39 161.989 141.47 161.877 141.525 161.73C141.58 161.583 141.608 161.409 141.608 161.207C141.608 161.022 141.584 160.857 141.535 160.71C141.487 160.562 141.41 160.444 141.303 160.357C141.198 160.271 141.06 160.227 140.89 160.227C140.734 160.227 140.601 160.267 140.493 160.345C140.385 160.422 140.302 160.533 140.245 160.68C140.19 160.827 140.163 161.002 140.163 161.207C140.163 161.389 140.188 161.554 140.238 161.702C140.288 161.851 140.366 161.968 140.473 162.055C140.58 162.142 140.719 162.185 140.89 162.185ZM142.671 162.5V159.915H143.116V160.29C143.187 160.177 143.286 160.077 143.411 159.992C143.536 159.907 143.698 159.865 143.898 159.865C143.991 159.865 144.086 159.881 144.183 159.912C144.281 159.944 144.371 159.992 144.453 160.055C144.535 160.118 144.598 160.196 144.643 160.287C144.723 160.161 144.831 160.059 144.968 159.982C145.105 159.904 145.259 159.865 145.431 159.865C145.521 159.865 145.615 159.879 145.713 159.907C145.811 159.934 145.902 159.982 145.986 160.052C146.071 160.121 146.14 160.217 146.193 160.34C146.246 160.462 146.273 160.618 146.273 160.81V162.5H145.808V160.855C145.808 160.698 145.783 160.577 145.733 160.492C145.683 160.406 145.617 160.345 145.536 160.31C145.456 160.275 145.37 160.257 145.278 160.257C145.198 160.257 145.113 160.273 145.023 160.305C144.933 160.337 144.856 160.39 144.793 160.465C144.73 160.54 144.698 160.642 144.698 160.772V162.5H144.238V160.72C144.238 160.618 144.211 160.533 144.156 160.465C144.102 160.397 144.035 160.345 143.953 160.31C143.873 160.275 143.793 160.257 143.713 160.257C143.625 160.257 143.536 160.275 143.446 160.31C143.357 160.345 143.282 160.401 143.221 160.477C143.161 160.552 143.131 160.651 143.131 160.772V162.5H142.671ZM148.37 163.325C148.218 163.325 148.114 163.314 148.057 163.293C148.001 163.271 147.972 163.26 147.972 163.26V162.96L148.235 162.965C148.332 162.968 148.412 162.962 148.475 162.945C148.538 162.928 148.589 162.906 148.627 162.878C148.666 162.849 148.695 162.818 148.715 162.783C148.737 162.748 148.754 162.714 148.767 162.683L148.857 162.437L147.847 159.915H148.315L149.077 161.91L149.835 159.915H150.287L149.197 162.695C149.131 162.858 149.056 162.986 148.972 163.078C148.891 163.169 148.799 163.233 148.697 163.27C148.597 163.307 148.488 163.325 148.37 163.325ZM151.716 162.55C151.477 162.55 151.269 162.499 151.091 162.397C150.912 162.294 150.774 162.143 150.676 161.945C150.577 161.747 150.528 161.504 150.528 161.217C150.528 160.947 150.574 160.711 150.666 160.507C150.757 160.304 150.891 160.147 151.068 160.035C151.246 159.922 151.462 159.865 151.716 159.865C151.954 159.865 152.161 159.917 152.336 160.022C152.512 160.126 152.649 160.278 152.746 160.48C152.842 160.682 152.891 160.927 152.891 161.217C152.891 161.481 152.846 161.712 152.756 161.912C152.667 162.112 152.536 162.269 152.361 162.382C152.187 162.494 151.972 162.55 151.716 162.55ZM151.716 162.185C151.871 162.185 152.001 162.146 152.108 162.067C152.215 161.989 152.296 161.877 152.351 161.73C152.406 161.583 152.433 161.409 152.433 161.207C152.433 161.022 152.409 160.857 152.361 160.71C152.312 160.562 152.235 160.444 152.128 160.357C152.023 160.271 151.886 160.227 151.716 160.227C151.559 160.227 151.426 160.267 151.318 160.345C151.21 160.422 151.127 160.533 151.071 160.68C151.016 160.827 150.988 161.002 150.988 161.207C150.988 161.389 151.013 161.554 151.063 161.702C151.113 161.851 151.191 161.968 151.298 162.055C151.405 162.142 151.544 162.185 151.716 162.185ZM154.402 162.55C154.267 162.548 154.139 162.529 154.019 162.492C153.901 162.454 153.796 162.398 153.704 162.325C153.613 162.252 153.54 162.161 153.487 162.052C153.435 161.942 153.409 161.815 153.409 161.67V159.915H153.872V161.622C153.872 161.791 153.924 161.927 154.027 162.032C154.132 162.137 154.289 162.19 154.499 162.19C154.689 162.19 154.842 162.141 154.957 162.042C155.074 161.942 155.132 161.794 155.132 161.597V159.915H155.592V162.5H155.224L155.177 162.005C155.145 162.135 155.091 162.24 155.014 162.32C154.939 162.4 154.849 162.459 154.742 162.497C154.637 162.534 154.524 162.552 154.402 162.55ZM156.347 162.5V159.915H156.787V160.412C156.831 160.289 156.892 160.187 156.97 160.107C157.048 160.026 157.137 159.965 157.237 159.925C157.339 159.885 157.444 159.865 157.552 159.865C157.591 159.865 157.628 159.867 157.665 159.873C157.702 159.877 157.73 159.886 157.75 159.897V160.345C157.725 160.333 157.692 160.326 157.652 160.322C157.614 160.317 157.582 160.315 157.555 160.315C157.452 160.308 157.355 160.315 157.265 160.335C157.175 160.353 157.096 160.386 157.027 160.432C156.959 160.479 156.905 160.541 156.865 160.617C156.827 160.692 156.807 160.784 156.807 160.892V162.5H156.347ZM73.0975 169.55C72.9308 169.55 72.7833 169.521 72.655 169.462C72.5267 169.402 72.4258 169.317 72.3525 169.205C72.2808 169.093 72.245 168.958 72.245 168.8C72.245 168.513 72.345 168.3 72.545 168.16C72.745 168.02 73.0658 167.945 73.5075 167.935L73.97 167.922V167.72C73.97 167.562 73.9225 167.437 73.8275 167.345C73.7325 167.252 73.585 167.205 73.385 167.205C73.2367 167.207 73.1058 167.242 72.9925 167.31C72.8808 167.378 72.8083 167.49 72.775 167.645H72.3675C72.3775 167.477 72.425 167.335 72.51 167.22C72.595 167.103 72.7133 167.015 72.865 166.955C73.0183 166.895 73.1992 166.865 73.4075 166.865C73.6325 166.865 73.8192 166.897 73.9675 166.96C74.1175 167.023 74.2292 167.117 74.3025 167.24C74.3775 167.363 74.415 167.515 74.415 167.695V169.5H74.02L73.9875 169.015C73.8875 169.217 73.76 169.357 73.605 169.435C73.4517 169.512 73.2825 169.55 73.0975 169.55ZM73.2375 169.217C73.3242 169.217 73.41 169.202 73.495 169.17C73.5817 169.138 73.6608 169.096 73.7325 169.042C73.8042 168.987 73.8608 168.927 73.9025 168.86C73.9458 168.792 73.9683 168.722 73.97 168.65V168.207L73.585 168.215C73.3883 168.218 73.2233 168.238 73.09 168.275C72.9583 168.312 72.8592 168.369 72.7925 168.447C72.7275 168.526 72.695 168.628 72.695 168.755C72.695 168.9 72.745 169.013 72.845 169.095C72.9467 169.177 73.0775 169.217 73.2375 169.217ZM76.2348 166.865C76.4198 166.865 76.5864 166.901 76.7348 166.972C76.8831 167.042 77.0039 167.142 77.0973 167.272C77.1923 167.402 77.2514 167.556 77.2748 167.732H76.8648C76.8498 167.642 76.8148 167.56 76.7598 167.485C76.7064 167.41 76.6356 167.35 76.5473 167.305C76.4589 167.26 76.3556 167.237 76.2373 167.237C76.0156 167.237 75.8356 167.317 75.6973 167.477C75.5589 167.637 75.4898 167.882 75.4898 168.212C75.4898 168.511 75.5531 168.75 75.6798 168.93C75.8081 169.108 75.9964 169.197 76.2448 169.197C76.3631 169.197 76.4656 169.175 76.5523 169.13C76.6406 169.083 76.7114 169.022 76.7648 168.947C76.8181 168.871 76.8523 168.789 76.8673 168.702H77.2698C77.2481 168.876 77.1898 169.026 77.0948 169.152C76.9998 169.279 76.8781 169.377 76.7298 169.447C76.5831 169.516 76.4181 169.55 76.2348 169.55C76.0031 169.55 75.7973 169.499 75.6173 169.397C75.4389 169.296 75.2989 169.146 75.1973 168.947C75.0956 168.749 75.0448 168.506 75.0448 168.217C75.0448 167.947 75.0906 167.712 75.1823 167.51C75.2756 167.307 75.4106 167.148 75.5873 167.035C75.7656 166.922 75.9814 166.865 76.2348 166.865ZM78.9301 166.865C79.1151 166.865 79.2817 166.901 79.4301 166.972C79.5784 167.042 79.6992 167.142 79.7926 167.272C79.8876 167.402 79.9467 167.556 79.9701 167.732H79.5601C79.5451 167.642 79.5101 167.56 79.4551 167.485C79.4017 167.41 79.3309 167.35 79.2426 167.305C79.1542 167.26 79.0509 167.237 78.9326 167.237C78.7109 167.237 78.5309 167.317 78.3926 167.477C78.2542 167.637 78.1851 167.882 78.1851 168.212C78.1851 168.511 78.2484 168.75 78.3751 168.93C78.5034 169.108 78.6917 169.197 78.9401 169.197C79.0584 169.197 79.1609 169.175 79.2476 169.13C79.3359 169.083 79.4067 169.022 79.4601 168.947C79.5134 168.871 79.5476 168.789 79.5626 168.702H79.9651C79.9434 168.876 79.8851 169.026 79.7901 169.152C79.6951 169.279 79.5734 169.377 79.4251 169.447C79.2784 169.516 79.1134 169.55 78.9301 169.55C78.6984 169.55 78.4926 169.499 78.3126 169.397C78.1342 169.296 77.9942 169.146 77.8926 168.947C77.7909 168.749 77.7401 168.506 77.7401 168.217C77.7401 167.947 77.7859 167.712 77.8776 167.51C77.9709 167.307 78.1059 167.148 78.2826 167.035C78.4609 166.922 78.6767 166.865 78.9301 166.865ZM81.6229 169.55C81.3846 169.55 81.1762 169.499 80.9979 169.397C80.8196 169.294 80.6812 169.143 80.5829 168.945C80.4846 168.747 80.4354 168.504 80.4354 168.217C80.4354 167.947 80.4812 167.711 80.5729 167.507C80.6646 167.304 80.7987 167.147 80.9754 167.035C81.1537 166.922 81.3696 166.865 81.6229 166.865C81.8612 166.865 82.0679 166.917 82.2429 167.022C82.4196 167.126 82.5562 167.278 82.6529 167.48C82.7496 167.682 82.7979 167.927 82.7979 168.217C82.7979 168.481 82.7529 168.712 82.6629 168.912C82.5746 169.112 82.4429 169.269 82.2679 169.382C82.0946 169.494 81.8796 169.55 81.6229 169.55ZM81.6229 169.185C81.7779 169.185 81.9087 169.146 82.0154 169.067C82.1221 168.989 82.2029 168.877 82.2579 168.73C82.3129 168.583 82.3404 168.409 82.3404 168.207C82.3404 168.022 82.3162 167.857 82.2679 167.71C82.2196 167.562 82.1421 167.444 82.0354 167.357C81.9304 167.271 81.7929 167.227 81.6229 167.227C81.4662 167.227 81.3337 167.267 81.2254 167.345C81.1171 167.422 81.0346 167.533 80.9779 167.68C80.9229 167.827 80.8954 168.002 80.8954 168.207C80.8954 168.389 80.9204 168.554 80.9704 168.702C81.0204 168.851 81.0987 168.968 81.2054 169.055C81.3121 169.142 81.4512 169.185 81.6229 169.185ZM84.3091 169.55C84.1741 169.548 84.0466 169.529 83.9266 169.492C83.8082 169.454 83.7032 169.398 83.6116 169.325C83.5199 169.252 83.4474 169.161 83.3941 169.052C83.3424 168.942 83.3166 168.815 83.3166 168.67V166.915H83.7791V168.622C83.7791 168.791 83.8307 168.927 83.9341 169.032C84.0391 169.137 84.1966 169.19 84.4066 169.19C84.5966 169.19 84.7491 169.141 84.8641 169.042C84.9807 168.942 85.0391 168.794 85.0391 168.597V166.915H85.4991V169.5H85.1316L85.0841 169.005C85.0524 169.135 84.9982 169.24 84.9216 169.32C84.8466 169.4 84.7557 169.459 84.6491 169.497C84.5441 169.534 84.4307 169.552 84.3091 169.55ZM86.2546 169.5V166.915H86.7021V167.29C86.7437 167.218 86.8012 167.151 86.8746 167.087C86.9496 167.024 87.0396 166.973 87.1446 166.935C87.2512 166.897 87.3737 166.877 87.5121 166.877C87.6754 166.877 87.8254 166.91 87.9621 166.975C88.1004 167.04 88.2104 167.142 88.2921 167.28C88.3754 167.417 88.4171 167.593 88.4171 167.81V169.5H87.9546V167.855C87.9546 167.653 87.9012 167.504 87.7946 167.407C87.6896 167.309 87.5529 167.26 87.3846 167.26C87.2679 167.26 87.1587 167.279 87.0571 167.317C86.9554 167.354 86.8729 167.411 86.8096 167.487C86.7462 167.562 86.7146 167.657 86.7146 167.772V169.5H86.2546ZM90.3316 167.252H89.7491V168.86C89.7491 168.952 89.7582 169.019 89.7766 169.062C89.7966 169.104 89.8291 169.131 89.8741 169.142C89.9207 169.154 89.9841 169.16 90.0641 169.16H90.3466V169.47C90.3149 169.482 90.2666 169.492 90.2016 169.5C90.1382 169.508 90.0591 169.513 89.9641 169.513C89.7857 169.513 89.6474 169.488 89.5491 169.44C89.4507 169.392 89.3816 169.32 89.3416 169.225C89.3032 169.13 89.2841 169.013 89.2841 168.875V167.252H88.8641V166.915H89.2966L89.4091 166.162H89.7491V166.912H90.3316V167.252ZM92.6481 166.915V169.5H92.2006V166.915H92.6481ZM92.6581 165.887V166.367H92.1856V165.887H92.6581ZM94.3791 169.55C94.1991 169.55 94.0316 169.523 93.8766 169.467C93.7233 169.411 93.5958 169.323 93.4941 169.205C93.3924 169.085 93.3283 168.932 93.3016 168.747H93.7216C93.7449 168.849 93.7866 168.934 93.8466 169.002C93.9083 169.069 93.9849 169.12 94.0766 169.155C94.1683 169.188 94.2683 169.205 94.3766 169.205C94.5499 169.205 94.6899 169.172 94.7966 169.107C94.9033 169.042 94.9566 168.942 94.9566 168.807C94.9566 168.712 94.9283 168.637 94.8716 168.58C94.8166 168.522 94.7308 168.479 94.6141 168.452L94.0791 168.32C93.8708 168.27 93.7041 168.192 93.5791 168.085C93.4541 167.978 93.3916 167.829 93.3916 167.637C93.3899 167.486 93.4258 167.352 93.4991 167.237C93.5724 167.122 93.6824 167.032 93.8291 166.965C93.9758 166.898 94.1583 166.865 94.3766 166.865C94.6566 166.865 94.8824 166.928 95.0541 167.055C95.2274 167.18 95.3174 167.364 95.3241 167.607H94.9166C94.8999 167.484 94.8441 167.387 94.7491 167.315C94.6558 167.242 94.5299 167.205 94.3716 167.205C94.2066 167.205 94.0724 167.238 93.9691 167.305C93.8658 167.37 93.8141 167.472 93.8141 167.61C93.8141 167.702 93.8508 167.774 93.9241 167.827C93.9974 167.879 94.1058 167.922 94.2491 167.957L94.7666 168.088C94.8866 168.119 94.9849 168.161 95.0616 168.212C95.1399 168.264 95.2016 168.322 95.2466 168.385C95.2933 168.448 95.3258 168.515 95.3441 168.585C95.3641 168.653 95.3741 168.719 95.3741 168.782C95.3741 168.941 95.3341 169.077 95.2541 169.192C95.1758 169.306 95.0624 169.394 94.9141 169.457C94.7674 169.519 94.5891 169.55 94.3791 169.55ZM99.9948 168.123C99.9948 168.414 99.9473 168.667 99.8523 168.882C99.7573 169.096 99.6031 169.261 99.3898 169.377C99.1781 169.493 98.8973 169.55 98.5473 169.55C98.1956 169.55 97.9139 169.492 97.7023 169.375C97.4906 169.257 97.3373 169.089 97.2423 168.872C97.1489 168.656 97.1023 168.397 97.1023 168.097V165.885H97.8448V168.152C97.8448 168.422 97.9098 168.62 98.0398 168.745C98.1698 168.868 98.3389 168.93 98.5473 168.93C98.6856 168.93 98.8081 168.903 98.9148 168.85C99.0214 168.795 99.1048 168.711 99.1648 168.597C99.2264 168.482 99.2573 168.334 99.2573 168.152V165.885H99.9948V168.123ZM102.078 169.55C101.9 169.55 101.725 169.528 101.553 169.482C101.381 169.437 101.225 169.37 101.083 169.28C100.941 169.19 100.824 169.077 100.73 168.942C100.639 168.807 100.584 168.649 100.565 168.467H101.313C101.338 168.577 101.385 168.67 101.455 168.745C101.525 168.82 101.614 168.877 101.72 168.917C101.827 168.957 101.945 168.977 102.075 168.977C102.209 168.977 102.33 168.961 102.44 168.927C102.55 168.894 102.639 168.844 102.705 168.777C102.772 168.709 102.805 168.624 102.805 168.522C102.805 168.431 102.778 168.356 102.723 168.297C102.67 168.239 102.597 168.192 102.505 168.155C102.414 168.118 102.31 168.088 102.193 168.065L101.568 167.938C101.295 167.886 101.078 167.777 100.918 167.612C100.758 167.446 100.675 167.224 100.67 166.947C100.669 166.721 100.729 166.525 100.85 166.36C100.974 166.193 101.14 166.065 101.35 165.975C101.562 165.885 101.799 165.84 102.06 165.84C102.372 165.84 102.634 165.889 102.845 165.987C103.059 166.084 103.22 166.216 103.33 166.382C103.442 166.547 103.5 166.732 103.503 166.935H102.77C102.757 166.808 102.719 166.707 102.655 166.632C102.592 166.557 102.51 166.503 102.41 166.47C102.312 166.437 102.2 166.42 102.073 166.42C101.976 166.42 101.888 166.431 101.808 166.452C101.73 166.474 101.663 166.505 101.608 166.545C101.553 166.583 101.51 166.629 101.48 166.682C101.45 166.736 101.435 166.796 101.435 166.862C101.435 166.967 101.47 167.052 101.54 167.117C101.61 167.182 101.741 167.236 101.933 167.277L102.553 167.405C102.775 167.448 102.95 167.512 103.08 167.597C103.212 167.682 103.31 167.778 103.375 167.885C103.442 167.992 103.485 168.101 103.505 168.212C103.527 168.322 103.538 168.424 103.538 168.517C103.538 168.712 103.476 168.888 103.353 169.045C103.231 169.2 103.061 169.323 102.843 169.415C102.625 169.505 102.37 169.55 102.078 169.55ZM106.609 169.55C106.176 169.55 105.824 169.463 105.554 169.29C105.284 169.115 105.129 168.846 105.089 168.482L105.849 168.467C105.889 168.632 105.975 168.758 106.107 168.845C106.24 168.93 106.407 168.972 106.607 168.972C106.727 168.972 106.833 168.953 106.924 168.915C107.018 168.875 107.091 168.822 107.144 168.755C107.198 168.687 107.224 168.609 107.224 168.522C107.224 168.389 107.182 168.29 107.097 168.225C107.012 168.158 106.881 168.105 106.704 168.065L106.112 167.938C105.837 167.882 105.616 167.773 105.449 167.61C105.284 167.445 105.2 167.224 105.197 166.947C105.195 166.721 105.256 166.525 105.379 166.36C105.504 166.193 105.673 166.065 105.887 165.975C106.102 165.885 106.343 165.84 106.609 165.84C106.883 165.84 107.118 165.889 107.317 165.987C107.517 166.084 107.67 166.215 107.777 166.38C107.885 166.543 107.938 166.724 107.934 166.922L107.197 166.935C107.173 166.775 107.12 166.649 107.037 166.557C106.953 166.466 106.815 166.42 106.622 166.42C106.522 166.42 106.433 166.431 106.354 166.452C106.276 166.474 106.208 166.505 106.152 166.545C106.095 166.583 106.052 166.629 106.022 166.682C105.993 166.736 105.979 166.796 105.979 166.862C105.979 166.967 106.014 167.051 106.084 167.112C106.156 167.172 106.29 167.228 106.487 167.28L107.069 167.422C107.398 167.501 107.634 167.635 107.779 167.825C107.926 168.015 107.999 168.246 107.999 168.517C107.999 168.726 107.942 168.907 107.827 169.062C107.713 169.217 107.553 169.337 107.344 169.422C107.136 169.508 106.891 169.55 106.609 169.55ZM106.297 165.367H106.929V166.017H106.297V165.367ZM106.284 169.327H106.914V169.978H106.284V169.327ZM109.105 169.5V166.792H108.46V166.38C108.667 166.38 108.833 166.361 108.96 166.322C109.088 166.282 109.184 166.226 109.248 166.152C109.311 166.077 109.348 165.988 109.36 165.885H109.845V169.5H109.105ZM111.999 165.835C112.429 165.835 112.768 165.996 113.016 166.317C113.265 166.637 113.389 167.098 113.389 167.7C113.389 168.298 113.266 168.757 113.021 169.077C112.776 169.396 112.435 169.555 111.999 169.555C111.56 169.555 111.218 169.396 110.971 169.077C110.726 168.759 110.604 168.301 110.604 167.702C110.604 167.302 110.66 166.963 110.774 166.685C110.887 166.407 111.048 166.196 111.256 166.052C111.465 165.907 111.712 165.835 111.999 165.835ZM111.999 168.957C112.214 168.957 112.371 168.862 112.471 168.67C112.571 168.477 112.621 168.154 112.621 167.702C112.621 167.241 112.57 166.91 112.469 166.71C112.367 166.51 112.21 166.41 111.996 166.41C111.783 166.41 111.624 166.511 111.519 166.712C111.415 166.914 111.364 167.244 111.364 167.702C111.364 168.152 111.415 168.474 111.519 168.667C111.622 168.861 111.782 168.957 111.999 168.957ZM115.449 165.885H116.167V168.088H116.724V168.7H116.167V169.5H115.464L115.467 168.7H113.802V168.1L115.449 165.885ZM114.477 168.088H115.467V166.762L114.477 168.088ZM117.116 169.5V168.705H117.916V169.5H117.116ZM119.763 169.555C119.538 169.555 119.328 169.512 119.133 169.425C118.938 169.338 118.779 169.217 118.656 169.06C118.532 168.902 118.463 168.717 118.448 168.505H119.143C119.173 168.645 119.24 168.759 119.343 168.847C119.447 168.934 119.577 168.977 119.733 168.977C119.907 168.977 120.058 168.937 120.188 168.855C120.32 168.773 120.418 168.643 120.483 168.465C120.55 168.287 120.573 168.053 120.553 167.765C120.507 167.853 120.442 167.931 120.358 167.997C120.277 168.062 120.181 168.113 120.071 168.15C119.961 168.185 119.838 168.202 119.703 168.202C119.458 168.202 119.241 168.157 119.051 168.065C118.862 167.972 118.714 167.84 118.606 167.67C118.499 167.498 118.446 167.295 118.446 167.06C118.446 166.823 118.502 166.612 118.616 166.427C118.729 166.242 118.887 166.097 119.091 165.992C119.294 165.887 119.532 165.835 119.806 165.835C120.112 165.835 120.377 165.908 120.598 166.055C120.822 166.2 120.992 166.407 121.111 166.675C121.231 166.942 121.291 167.256 121.291 167.617C121.291 168.049 121.229 168.409 121.106 168.697C120.984 168.984 120.809 169.199 120.581 169.342C120.352 169.484 120.08 169.555 119.763 169.555ZM119.828 167.622C119.93 167.622 120.028 167.6 120.123 167.555C120.22 167.508 120.299 167.45 120.361 167.38C120.422 167.31 120.453 167.237 120.453 167.162C120.455 167.001 120.429 166.862 120.376 166.747C120.324 166.631 120.251 166.542 120.156 166.48C120.062 166.418 119.953 166.387 119.828 166.387C119.713 166.387 119.611 166.414 119.521 166.467C119.431 166.521 119.36 166.596 119.308 166.692C119.257 166.789 119.231 166.901 119.231 167.027C119.231 167.216 119.286 167.362 119.396 167.467C119.506 167.571 119.65 167.622 119.828 167.622ZM123.112 165.835C123.542 165.835 123.881 165.996 124.13 166.317C124.378 166.637 124.502 167.098 124.502 167.7C124.502 168.298 124.38 168.757 124.135 169.077C123.89 169.396 123.549 169.555 123.112 169.555C122.674 169.555 122.331 169.396 122.085 169.077C121.84 168.759 121.717 168.301 121.717 167.702C121.717 167.302 121.774 166.963 121.887 166.685C122 166.407 122.161 166.196 122.37 166.052C122.578 165.907 122.825 165.835 123.112 165.835ZM123.112 168.957C123.327 168.957 123.485 168.862 123.585 168.67C123.685 168.477 123.735 168.154 123.735 167.702C123.735 167.241 123.684 166.91 123.582 166.71C123.48 166.51 123.323 166.41 123.11 166.41C122.896 166.41 122.737 166.511 122.632 166.712C122.529 166.914 122.477 167.244 122.477 167.702C122.477 168.152 122.529 168.474 122.632 168.667C122.735 168.861 122.895 168.957 123.112 168.957ZM124.995 169.5V168.91H125.545V169.5H124.995Z" fill="#36536B"/>
<path fill-rule="evenodd" clip-rule="evenodd" d="M73.9089 147.228V145.741L75.1203 143.691H74.3521L73.5597 145.125L72.7577 143.691H71.9967L73.2057 145.738V147.228H73.9089ZM76.5364 147.277C76.7901 147.277 77.0065 147.221 77.1855 147.11C77.3645 146.999 77.5018 146.847 77.5973 146.652C77.6929 146.457 77.7406 146.232 77.7406 145.978C77.7406 145.707 77.6916 145.473 77.5937 145.274C77.4958 145.075 77.3569 144.921 77.1771 144.813C76.9972 144.704 76.7845 144.65 76.5389 144.65C76.2932 144.65 76.0801 144.706 75.8994 144.816C75.7188 144.927 75.5791 145.082 75.4804 145.281C75.3816 145.48 75.3323 145.712 75.3323 145.978C75.3323 146.244 75.3816 146.474 75.4804 146.668C75.5791 146.862 75.7188 147.012 75.8994 147.118C76.0801 147.224 76.2924 147.277 76.5364 147.277ZM76.2282 146.631C76.3036 146.708 76.4072 146.746 76.5389 146.746C76.6625 146.746 76.762 146.709 76.8375 146.636C76.9129 146.563 76.9679 146.466 77.0025 146.346C77.037 146.226 77.0542 146.095 77.0542 145.954C77.0542 145.82 77.0386 145.694 77.0073 145.575C76.976 145.455 76.9226 145.359 76.8471 145.286C76.7717 145.213 76.6689 145.176 76.5389 145.176C76.4152 145.176 76.3153 145.211 76.239 145.28C76.1627 145.349 76.107 145.443 76.0716 145.561C76.0363 145.679 76.0186 145.81 76.0186 145.954C76.0186 146.086 76.0347 146.212 76.0668 146.334C76.0989 146.455 76.1527 146.554 76.2282 146.631ZM79.1254 147.277C79.2234 147.277 79.3233 147.262 79.4253 147.231C79.5272 147.201 79.6179 147.147 79.6974 147.068C79.7769 146.988 79.8311 146.875 79.86 146.726L79.9418 147.228H80.4717V144.699H79.7757V146.345C79.7757 146.475 79.7351 146.577 79.6541 146.649C79.573 146.722 79.4634 146.758 79.3253 146.758C79.1792 146.758 79.0684 146.721 78.993 146.646C78.9175 146.571 78.8798 146.474 78.8798 146.357V144.699H78.1765V146.448C78.1765 146.583 78.2042 146.702 78.2596 146.805C78.315 146.907 78.3885 146.994 78.48 147.064C78.5715 147.134 78.673 147.187 78.7846 147.223C78.8962 147.259 79.0098 147.277 79.1254 147.277ZM81.7457 145.844V147.228H81.0425V144.699H81.7192V145.298C81.7593 145.169 81.8159 145.056 81.889 144.959C81.9621 144.862 82.0508 144.787 82.1551 144.732C82.2595 144.677 82.3775 144.65 82.5091 144.65C82.5316 144.65 82.5529 144.651 82.573 144.654C82.593 144.656 82.6079 144.66 82.6175 144.665V145.345C82.6031 145.338 82.5858 145.334 82.5657 145.332C82.5457 145.331 82.5276 145.329 82.5116 145.328C82.3735 145.316 82.2555 145.32 82.1575 145.34C82.0596 145.359 81.9801 145.393 81.9191 145.44C81.8581 145.487 81.8139 145.545 81.7866 145.614C81.7593 145.682 81.7457 145.759 81.7457 145.844ZM84.5587 147.228L84.8501 146.408H86.1024L86.3866 147.228H87.0874L85.8423 143.691H85.1005L83.853 147.228H84.5587ZM85.0066 145.785H85.9338L85.4738 144.381L85.0066 145.785ZM88.2242 148.015V146.849C88.2595 146.909 88.3008 146.965 88.3482 147.016C88.3956 147.068 88.4493 147.113 88.5096 147.152C88.5698 147.191 88.6352 147.222 88.7058 147.244C88.7765 147.266 88.8519 147.277 88.9322 147.277C89.1281 147.277 89.3039 147.229 89.4596 147.135C89.6154 147.04 89.7378 146.895 89.8269 146.698C89.916 146.502 89.9606 146.25 89.9606 145.944C89.9606 145.649 89.9192 145.405 89.8366 145.214C89.7539 145.022 89.6403 144.88 89.4958 144.788C89.3513 144.696 89.1867 144.65 89.0021 144.65C88.917 144.65 88.8359 144.66 88.7588 144.681C88.6817 144.701 88.6103 144.73 88.5445 144.767C88.4786 144.805 88.4188 144.849 88.365 144.898C88.3113 144.948 88.2659 145.003 88.229 145.063L88.2266 144.699H87.5209V148.015H88.2242ZM88.4614 146.641C88.5409 146.716 88.6416 146.753 88.7636 146.753C88.9162 146.753 89.0442 146.689 89.1478 146.56C89.2513 146.431 89.3031 146.227 89.3031 145.949C89.3031 145.704 89.2537 145.513 89.155 145.375C89.0562 145.237 88.9258 145.169 88.7636 145.169C88.5822 145.169 88.4469 145.243 88.3578 145.392C88.2687 145.541 88.2242 145.727 88.2242 145.949C88.2242 146.091 88.2438 146.223 88.2832 146.345C88.3225 146.467 88.3819 146.566 88.4614 146.641ZM91.131 148.015V146.849C91.1664 146.909 91.2077 146.965 91.2551 147.016C91.3024 147.068 91.3562 147.113 91.4164 147.152C91.4766 147.191 91.5421 147.222 91.6127 147.244C91.6834 147.266 91.7588 147.277 91.8391 147.277C92.035 147.277 92.2108 147.229 92.3665 147.135C92.5223 147.04 92.6447 146.895 92.7338 146.698C92.8229 146.502 92.8675 146.25 92.8675 145.944C92.8675 145.649 92.8261 145.405 92.7434 145.214C92.6607 145.022 92.5471 144.88 92.4026 144.788C92.2581 144.696 92.0936 144.65 91.9089 144.65C91.8238 144.65 91.7428 144.66 91.6657 144.681C91.5886 144.701 91.5172 144.73 91.4513 144.767C91.3855 144.805 91.3257 144.849 91.2719 144.898C91.2181 144.948 91.1728 145.003 91.1359 145.063L91.1334 144.699H90.4278V148.015H91.131ZM91.3683 146.641C91.4477 146.716 91.5485 146.753 91.6705 146.753C91.823 146.753 91.9511 146.689 92.0546 146.56C92.1582 146.431 92.21 146.227 92.21 145.949C92.21 145.704 92.1606 145.513 92.0619 145.375C91.9631 145.237 91.8327 145.169 91.6705 145.169C91.4891 145.169 91.3538 145.243 91.2647 145.392C91.1756 145.541 91.131 145.727 91.131 145.949C91.131 146.091 91.1507 146.223 91.19 146.345C91.2294 146.467 91.2888 146.566 91.3683 146.641Z" fill="#BA4270"/>
<path opacity="0.5" fill-rule="evenodd" clip-rule="evenodd" d="M142.553 147.174C142.446 147.242 142.295 147.277 142.099 147.277C141.975 147.277 141.859 147.262 141.751 147.233C141.642 147.203 141.571 147.181 141.535 147.167L141.567 146.734C141.616 146.752 141.674 146.774 141.739 146.801C141.804 146.828 141.884 146.841 141.981 146.841C142.138 146.841 142.246 146.797 142.305 146.709C142.363 146.621 142.393 146.473 142.393 146.264V143.691H142.838V146.394C142.838 146.581 142.817 146.741 142.776 146.873C142.734 147.005 142.66 147.105 142.553 147.174ZM144.819 147.224C144.717 147.261 144.608 147.278 144.49 147.277C144.36 147.275 144.238 147.256 144.123 147.219C144.008 147.182 143.907 147.128 143.818 147.057C143.73 146.985 143.661 146.896 143.61 146.789C143.559 146.682 143.534 146.558 143.534 146.416V144.699H143.98V146.369C143.98 146.534 144.03 146.668 144.13 146.77C144.231 146.873 144.382 146.924 144.584 146.924C144.767 146.924 144.915 146.876 145.026 146.779C145.138 146.682 145.194 146.537 145.194 146.345V144.699H145.637V147.228H145.283L145.237 146.743C145.206 146.871 145.155 146.973 145.082 147.052C145.009 147.13 144.921 147.187 144.819 147.224ZM147.217 147.277C147.419 147.277 147.591 147.246 147.733 147.185C147.875 147.124 147.984 147.037 148.061 146.926C148.137 146.814 148.175 146.681 148.175 146.526C148.175 146.464 148.166 146.399 148.147 146.331C148.129 146.264 148.098 146.199 148.053 146.137C148.009 146.075 147.95 146.019 147.875 145.968C147.801 145.918 147.705 145.877 147.59 145.846L147.091 145.719C146.953 145.685 146.849 145.642 146.778 145.59C146.708 145.539 146.672 145.469 146.672 145.379C146.672 145.244 146.722 145.144 146.822 145.079C146.921 145.015 147.05 144.983 147.209 144.983C147.362 144.983 147.483 145.018 147.574 145.089C147.665 145.16 147.718 145.256 147.734 145.376H148.127C148.121 145.138 148.034 144.958 147.868 144.835C147.702 144.712 147.484 144.65 147.214 144.65C147.004 144.65 146.828 144.683 146.687 144.748C146.545 144.813 146.439 144.902 146.369 145.014C146.298 145.127 146.264 145.257 146.265 145.406C146.265 145.593 146.325 145.739 146.446 145.844C146.566 145.948 146.727 146.024 146.928 146.073L147.443 146.203C147.555 146.229 147.638 146.27 147.692 146.327C147.746 146.383 147.773 146.457 147.773 146.55C147.773 146.682 147.722 146.78 147.619 146.844C147.516 146.907 147.381 146.939 147.214 146.939C147.11 146.939 147.013 146.922 146.925 146.889C146.837 146.856 146.763 146.806 146.705 146.74C146.646 146.674 146.606 146.591 146.583 146.492H146.179C146.204 146.673 146.266 146.821 146.364 146.938C146.462 147.054 146.585 147.14 146.734 147.195C146.882 147.249 147.043 147.277 147.217 147.277ZM149.971 147.228C149.909 147.236 149.832 147.24 149.741 147.24C149.569 147.24 149.435 147.216 149.341 147.169C149.246 147.122 149.18 147.052 149.142 146.959C149.104 146.866 149.085 146.752 149.085 146.616V145.029H148.681V144.699H149.097L149.206 143.963H149.533V144.697H150.095V145.029H149.533V146.602C149.533 146.691 149.543 146.757 149.561 146.799C149.58 146.84 149.611 146.867 149.655 146.878C149.699 146.889 149.76 146.895 149.837 146.895H150.109V147.198C150.078 147.21 150.032 147.22 149.971 147.228ZM152.382 147.228V144.44L154.251 147.228H154.649V143.691H154.203V146.44L152.363 143.691H151.937V147.228H152.382ZM157.09 147.112C156.922 147.222 156.714 147.277 156.467 147.277C156.237 147.277 156.037 147.227 155.865 147.126C155.693 147.026 155.56 146.879 155.465 146.685C155.37 146.491 155.323 146.254 155.323 145.973C155.323 145.709 155.367 145.477 155.456 145.279C155.544 145.08 155.673 144.925 155.844 144.815C156.015 144.705 156.223 144.65 156.467 144.65C156.697 144.65 156.896 144.701 157.066 144.803C157.235 144.905 157.366 145.054 157.459 145.252C157.552 145.449 157.599 145.689 157.599 145.973C157.599 146.231 157.556 146.457 157.47 146.653C157.384 146.849 157.257 147.002 157.09 147.112ZM156.467 146.92C156.302 146.92 156.168 146.877 156.065 146.792C155.962 146.708 155.887 146.593 155.838 146.448C155.79 146.302 155.766 146.141 155.766 145.963C155.766 145.763 155.793 145.591 155.847 145.447C155.901 145.304 155.98 145.194 156.084 145.118C156.188 145.043 156.316 145.005 156.467 145.005C156.631 145.005 156.764 145.047 156.866 145.132C156.968 145.217 157.042 145.331 157.088 145.475C157.135 145.62 157.158 145.782 157.158 145.963C157.158 146.161 157.132 146.331 157.079 146.474C157.026 146.618 156.948 146.728 156.845 146.805C156.742 146.881 156.616 146.92 156.467 146.92ZM159.699 145.362L159.16 147.228H158.724L157.955 144.699H158.367L158.938 146.643H158.977L159.538 144.699H159.875L160.458 146.638H160.496L161.043 144.699H161.46L160.706 147.228H160.267L159.699 145.362Z" fill="#36536B"/>
</g>
<defs>
<filter id="filter0_d" x="0.241943" y="0.273438" width="284.612" height="399.453" filterUnits="userSpaceOnUse" color-interpolation-filters="sRGB">
<feFlood flood-opacity="0" result="BackgroundImageFix"/>
<feColorMatrix in="SourceAlpha" type="matrix" values="0 0 0 0 0 0 0 0 0 0 0 0 0 0 0 0 0 0 127 0"/>
<feOffset dx="25" dy="25"/>
<feGaussianBlur stdDeviation="40"/>
<feColorMatrix type="matrix" values="0 0 0 0 0.212302 0 0 0 0 0.32521 0 0 0 0 0.419299 0 0 0 0.300727 0"/>
<feBlend mode="normal" in2="BackgroundImageFix" result="effect1_dropShadow"/>
<feBlend mode="normal" in="SourceGraphic" in2="effect1_dropShadow" result="shape"/>
</filter>
<filter id="filter1_d" x="59.2443" y="130" width="135.004" height="72.5532" filterUnits="userSpaceOnUse" color-interpolation-filters="sRGB">
<feFlood flood-opacity="0" result="BackgroundImageFix"/>
<feColorMatrix in="SourceAlpha" type="matrix" values="0 0 0 0 0 0 0 0 0 0 0 0 0 0 0 0 0 0 127 0"/>
<feMorphology radius="10" operator="erode" in="SourceAlpha" result="effect1_dropShadow"/>
<feOffset dx="10" dy="10"/>
<feGaussianBlur stdDeviation="12.5"/>
<feColorMatrix type="matrix" values="0 0 0 0 0.212302 0 0 0 0 0.32521 0 0 0 0 0.419299 0 0 0 0.25 0"/>
<feBlend mode="normal" in2="BackgroundImageFix" result="effect1_dropShadow"/>
<feBlend mode="normal" in="SourceGraphic" in2="effect1_dropShadow" result="shape"/>
</filter>
<linearGradient id="paint0_linear" x1="58.8436" y1="55" x2="58.8436" y2="60.9155" gradientUnits="userSpaceOnUse">
<stop stop-color="#454545"/>
<stop offset="0.226279" stop-color="#999999"/>
<stop offset="1" stop-color="white"/>
</linearGradient>
<linearGradient id="paint1_linear" x1="179.799" y1="96.1589" x2="175.223" y2="96.1589" gradientUnits="userSpaceOnUse">
<stop stop-color="white" stop-opacity="0.01"/>
<stop offset="0.222178" stop-color="#BABABA"/>
<stop offset="0.54678" stop-color="white" stop-opacity="0.01"/>
<stop offset="1" stop-color="white" stop-opacity="0.01"/>
</linearGradient>
<linearGradient id="paint2_linear" x1="55.2419" y1="96.0338" x2="59.825" y2="96.0338" gradientUnits="userSpaceOnUse">
<stop stop-color="white" stop-opacity="0.01"/>
<stop offset="0.222178" stop-color="#BABABA"/>
<stop offset="0.54678" stop-color="white" stop-opacity="0.01"/>
<stop offset="1" stop-color="white" stop-opacity="0.01"/>
</linearGradient>
<linearGradient id="paint3_linear" x1="61.4399" y1="61" x2="61.4399" y2="282.264" gradientUnits="userSpaceOnUse">
<stop stop-color="#9CB6CD"/>
<stop offset="0.420564" stop-color="#9AB3CA"/>
<stop offset="0.716592" stop-color="#557496"/>
<stop offset="1" stop-color="#475178"/>
</linearGradient>
<clipPath id="clip0">
<rect width="105" height="43" fill="white" transform="translate(64.2443 135)"/>
</clipPath>
</defs>
</svg>
