<svg width="106" height="106" fill="none" xmlns="http://www.w3.org/2000/svg"><circle cx="53" cy="53" r="53" fill="#36536B"/><mask id="a" maskUnits="userSpaceOnUse" x="0" y="0" width="106" height="106"><circle cx="53" cy="53" r="53" fill="#fff"/></mask><path fill-rule="evenodd" clip-rule="evenodd" d="M60 31.4l-3.1 9H39.2l-3-9 5-3.4 3.5 2.2L48 28l3.4 2.2 3.4-2.2 5 3.4zm-20.2 12h16.5v2.8H39.8v-2.9zm15.1 16.8h7.5l-.6-1.2-4.6-9.8H39L34.3 59A13 13 0 0046 77.7H50l2-.1V69h3v-8.8zM51.7 65c-.2.4-.5.7-.8.9l-1 .5a5 5 0 01-1.2.3v1.6h-1v-1.7a8.8 8.8 0 01-3.5-1l1.1-2.3a8 8 0 002.5 1V63a9.7 9.7 0 01-1.9-.7 3 3 0 01-.7-.6 2 2 0 01-.5-.7l-.1-1c0-.4 0-.9.2-1.2a3 3 0 011.7-1.7 4 4 0 011.1-.3v-1.3h1.1v1.3a6.5 6.5 0 011.7.5 10 10 0 011.3.5L50.6 60a5.5 5.5 0 00-1.3-.6 5 5 0 00-.8-.2v1.2h.3l.3.2 1.2.4.9.6.5.8c.2.3.2.7.2 1.1 0 .6 0 1-.2 1.4zm-4.4-5.3l.1.3.4.3v-1c-.3 0-.5.1-.5.4zm1.2 3.6v1l.5-.1.1-.3-.1-.3-.5-.3zm9.4 0h15V69H58V63zM70 71.8H55v5.8h15V72z" fill="#EDF3F8"/></svg>