<svg width="106" height="106" fill="none" xmlns="http://www.w3.org/2000/svg"><circle cx="53" cy="53" r="53" fill="#36536B"/><mask id="a" maskUnits="userSpaceOnUse" x="0" y="0" width="106" height="106"><circle cx="53" cy="53" r="53" fill="#fff"/></mask><path fill-rule="evenodd" clip-rule="evenodd" d="M41.4 50.8a3.5 3.5 0 01-6-2.6 3.5 3.5 0 017 0v.4l3.5 1.8a3.5 3.5 0 014-.6l4.6-4.7c-.2-.5-.3-1-.3-1.6a3.5 3.5 0 015.4-2.9l4.1-3-.2-1a3.5 3.5 0 111.6 2.8l-4 3.1.1 1a3.5 3.5 0 01-5 3.2l-4.7 4.7.3 1.5a3.5 3.5 0 01-7 0v-.3-.1l-3.4-1.7zm29.2 19.9h1.2a1.2 1.2 0 110 2.3H34.2a1.2 1.2 0 110-2.3h1.2v-13c0-.7.5-1.3 1.2-1.3h4.7c.6 0 1.2.6 1.2 1.2v13h2.3v-8.3c0-.7.5-1.2 1.2-1.2h4.7c.6 0 1.1.5 1.1 1.2v8.4h2.4V52.9c0-.6.5-1.1 1.1-1.1H60c.7 0 1.2.5 1.2 1.1v17.8h2.3V45.9c0-.7.6-1.2 1.2-1.2h4.7c.7 0 1.2.5 1.2 1.2v24.8z" fill="#fff"/></svg>